<?xml version="1.0" encoding="UTF-8" standalone="no"?>
<!-- Created with Inkscape (http://www.inkscape.org/) -->
<svg xmlns:inkscape="http://www.inkscape.org/namespaces/inkscape" xmlns:sodipodi="http://sodipodi.sourceforge.net/DTD/sodipodi-0.dtd" xmlns="http://www.w3.org/2000/svg" xmlns:svg="http://www.w3.org/2000/svg" version="1.1" id="svg1" width="4008.6667" height="2666.6667" viewBox="0 0 4008.6667 2666.6667" sodipodi:docname="8270976_5471.eps" style="background-color:transparent;">
  <defs id="defs1"/>
  <sodipodi:namedview id="namedview1" pagecolor="#ffffff" bordercolor="#000000" borderopacity="0.25" inkscape:showpageshadow="2" inkscape:pageopacity="0.0" inkscape:pagecheckerboard="0" inkscape:deskcolor="#d1d1d1">
    <inkscape:page x="0" y="0" inkscape:label="1" id="page1" width="4008.6667" height="2666.6667" margin="0" bleed="0"/>
  </sodipodi:namedview>
  <g id="g1" inkscape:groupmode="layer" inkscape:label="1">
    <g id="group-R5">
      <path id="path2" d="M 30065,20000 V 0 H 0 v 20000 h 30065" style="fill:none;fill-opacity:1;fill-rule:nonzero;stroke:none" transform="matrix(0.13333333,0,0,-0.13333333,0,2666.6667)"/>
      <path id="path3" d="M 5436.45,1637.8 H 1496.09 l 69.65,1933.4 2.02,58.5 0.49,12.1 3240.25,148.1 465.31,21.2 13.51,-180.4 59.42,-793.6 0.1,-1.1 21.5,-288.3 c 0,-0.1 0,-0.1 0,-0.1 l 9.46,-125.5 58.65,-784.3" style="fill:#e2b897;fill-opacity:1;fill-rule:nonzero;stroke:none" transform="matrix(0.13333333,0,0,-0.13333333,0,2666.6667)"/>
      <path id="path4" d="M 3558.49,1637.8 H 1494.55 l 37.04,1964.9 0.77,39.1 35.4,-12.1 377.64,-129.8 938.16,-322.2 c 0,0 0.48,-0.2 1.54,-0.5 l 621.39,-213.5 52,-1325.9" style="fill:#e2b897;fill-opacity:1;fill-rule:nonzero;stroke:none" transform="matrix(0.13333333,0,0,-0.13333333,0,2666.6667)"/>
      <path id="path5" d="m 3963.02,8738.1 -1132.52,-132.7 -27.78,762.5 -1.93,52.5 -3.67,100.3 926.59,108.6 60.28,7 50.65,-254.2 128.38,-644" style="fill:#f8bd8c;fill-opacity:1;fill-rule:nonzero;stroke:none" transform="matrix(0.13333333,0,0,-0.13333333,0,2666.6667)"/>
      <path id="path6" d="m 2656.13,8855.3 c 0,0 -1319.57,-549.8 -1356.23,-659.8 -36.65,-110 -183.27,-421.5 -183.27,-421.5 0,0 641.46,-1557.9 476.51,-2089.4 -164.95,-531.5 -54.98,-1411.2 -54.98,-1686.1 0,-274.9 -109.97,-384.9 91.63,-458.2 201.61,-73.3 861.4,-36.6 1227.94,0 366.55,36.7 1117.98,-11.3 1282.92,-42.3 164.96,-31 1154.63,134 1154.63,134 0,0 128.3,696.4 91.64,1044.6 -36.65,348.3 13.18,1173 6.59,1301.3 -6.59,128.3 62.79,183.3 0.61,494.8 -62.18,311.6 249.39,2016 249.39,2016 l -1521.18,554.5 -1466.2,-187.9" style="fill:#31185e;fill-opacity:1;fill-rule:nonzero;stroke:none" transform="matrix(0.13333333,0,0,-0.13333333,0,2666.6667)"/>
      <path id="path7" d="m 3345.28,8919.6 -190.32,-636.4 -837.38,422.5 202.97,213.9 h 824.73" style="fill:#2a1656;fill-opacity:1;fill-rule:nonzero;stroke:none" transform="matrix(0.13333333,0,0,-0.13333333,0,2666.6667)"/>
      <path id="path8" d="m 2342.34,8710 803.38,-405.4 179.42,600 h -798.15 z m 821.85,-448.3 -871.37,439.7 221.28,233.2 h 851.32 l -201.23,-672.9" style="fill:#1d1647;fill-opacity:1;fill-rule:nonzero;stroke:none" transform="matrix(0.13333333,0,0,-0.13333333,0,2666.6667)"/>
      <path id="path9" d="m 3182.03,8919.6 256.62,-636.4 955.21,672.6 -228.11,245.9 -983.72,-282.1" style="fill:#2a1656;fill-opacity:1;fill-rule:nonzero;stroke:none" transform="matrix(0.13333333,0,0,-0.13333333,0,2666.6667)"/>
      <path id="path10" d="m 3202.16,8909.8 243.32,-603.5 925.71,651.9 -210.17,226.5 z m 229.65,-649.8 -269.92,669.4 1008.58,289.2 246.06,-265.2 -984.72,-693.4" style="fill:#1d1647;fill-opacity:1;fill-rule:nonzero;stroke:none" transform="matrix(0.13333333,0,0,-0.13333333,0,2666.6667)"/>
      <path id="path11" d="m 1769.73,8466.2 c 0,0 563.8,-218.3 512.12,-2429.4 l 2053.86,471.5 251.81,-1040.6 c 0,0 -2253.99,-975.4 -2839.01,-959.2 -585.03,16.3 -963.572,2682.6 -843.072,2975.3 120.392,292.6 153.522,709.4 841.782,969.6 l 22.51,12.8" style="fill:#31185e;fill-opacity:1;fill-rule:nonzero;stroke:none" transform="matrix(0.13333333,0,0,-0.13333333,0,2666.6667)"/>
      <path id="path12" d="m 4444.45,6455.5 529.16,198 -131.28,-799 -413.61,-20.7 -90.57,565.9 106.3,55.8 v 0" style="fill:#f8bd8c;fill-opacity:1;fill-rule:nonzero;stroke:none" transform="matrix(0.13333333,0,0,-0.13333333,0,2666.6667)"/>
      <path id="path13" d="m 2794.54,6124.1 -432.47,-99.7 -17.23,104.8 -28.57,173.8 29.61,-11.1 448.66,-167.8 v 0" style="fill:#f8bd8c;fill-opacity:1;fill-rule:nonzero;stroke:none" transform="matrix(0.13333333,0,0,-0.13333333,0,2666.6667)"/>
      <path id="path14" d="M 5163.65,8351.3 4824.75,5939.5 2672.82,6228.9 2418.58,5167.8 c 0,0 2914.52,-707.5 3490.52,-514.5 576.12,192.9 305.01,2845.8 152.57,3183.5 -152.57,337.6 -255.55,601.7 -458.77,666 -203.34,64.2 -439.25,-151.5 -439.25,-151.5 v 0" style="fill:#31185e;fill-opacity:1;fill-rule:nonzero;stroke:none" transform="matrix(0.13333333,0,0,-0.13333333,0,2666.6667)"/>
      <path id="path15" d="m 3834.64,9382.1 c -45.34,-103.9 -124.24,-200.4 -246.36,-244.2 -269.22,-96.8 -605.96,105.3 -785.56,230 l -1.93,52.5 c 15.53,-2.4 33.09,-4.6 52.86,-6.2 118.64,-9.8 295.65,-6.7 518.27,49 159.26,39.8 273.08,104.2 351.79,166.1 l 60.28,7 50.65,-254.2" style="fill:#eab186;fill-opacity:1;fill-rule:nonzero;stroke:none" transform="matrix(0.13333333,0,0,-0.13333333,0,2666.6667)"/>
      <path id="path16" d="M 3965.81,10620.7 C 4015.2,9996 3720,9461.8 3261.29,9425.5 c -458.7,-36.3 -870.61,440.7 -920,1065.4 -49.39,624.8 282.43,1160.6 741.13,1196.9 458.71,36.2 833.99,-442.4 883.39,-1067.1" style="fill:#f8bd8c;fill-opacity:1;fill-rule:nonzero;stroke:none" transform="matrix(0.13333333,0,0,-0.13333333,0,2666.6667)"/>
      <path id="path17" d="m 3338.65,9250.4 c -439.12,-65.2 -869.46,388.6 -961.83,1012.4 -8.79,60.2 -13.93,119.5 -16.86,178.2 102.62,-606.3 526.38,-1042.5 957.43,-978.7 395.86,58.6 662.72,519 643.66,1066.7 2.2,-10.3 3.67,-20.6 5.14,-30.8 92.35,-623.9 -188.42,-1182.5 -627.54,-1247.8" style="fill:#1a1a1a;fill-opacity:1;fill-rule:nonzero;stroke:none" transform="matrix(0.13333333,0,0,-0.13333333,0,2666.6667)"/>
      <path id="path18" d="m 2686.68,12001.5 c 0,0 -5.22,-464.3 110.4,-531.5 115.63,-67.2 247.8,55 352.77,73.3 104.98,18.3 317.44,36.4 466.27,-93.3 148.82,-129.7 276.56,-507.9 276.56,-507.9 l 32.66,-126.7 c 0,0 87.02,-22 96.19,97.2 9.16,119.1 -15.28,618.5 0,667.4 15.27,48.9 9.16,97.7 -45.82,152.7 -54.98,55 -125.24,140.5 -103.85,177.2 21.38,36.6 113.01,131.3 24.43,213.8 -88.58,82.5 -516.22,134.4 -595.65,61.1 -79.41,-73.3 -375.7,207.7 -613.96,-183.3" style="fill:#1a1a1a;fill-opacity:1;fill-rule:nonzero;stroke:none" transform="matrix(0.13333333,0,0,-0.13333333,0,2666.6667)"/>
      <path id="path19" d="m 2605.73,11966.4 c 0,0 -416.95,-45.8 -426.11,-412.4 0,0 -50.4,-82.5 -151.2,-215.3 -100.8,-132.9 18.32,-357.4 45.81,-490.3 27.5,-132.9 84.01,-242.8 80.95,-282.5 -3.05,-39.7 73.21,-116.1 141.99,-85.6 68.78,30.6 84.05,112.1 84.05,112.1 0,0 6.11,517.2 82.48,608.8 76.36,91.7 206.17,181.7 281.02,219.9 74.84,38.3 91.63,110 91.63,119.2 0,9.1 -94.69,510.1 -94.69,510.1 l -135.93,-84" style="fill:#1a1a1a;fill-opacity:1;fill-rule:nonzero;stroke:none" transform="matrix(0.13333333,0,0,-0.13333333,0,2666.6667)"/>
      <path id="path20" d="m 2513.97,10396 c 57.44,-118.1 36.36,-246.7 -47.08,-287.3 -83.44,-40.6 -197.64,22.3 -255.08,140.4 -57.43,118.1 -36.36,246.7 47.08,287.3 83.44,40.6 197.65,-22.3 255.08,-140.4" style="fill:#f8bd8c;fill-opacity:1;fill-rule:nonzero;stroke:none" transform="matrix(0.13333333,0,0,-0.13333333,0,2666.6667)"/>
      <path id="path21" d="m 4132.71,10557.5 c -15.01,-130.4 -101.9,-227.6 -194.08,-217 -92.17,10.6 -154.73,125 -139.72,255.4 15,130.5 101.89,227.7 194.07,217.1 92.18,-10.6 154.73,-125 139.73,-255.5" style="fill:#f8bd8c;fill-opacity:1;fill-rule:nonzero;stroke:none" transform="matrix(0.13333333,0,0,-0.13333333,0,2666.6667)"/>
      <path id="path22" d="m 2874.86,10793.8 c -57.04,-3.6 -117.36,-11.2 -173.98,-23 -56.52,-11.9 -113.19,-28.8 -155.52,-55.1 l -2.11,-1.3 c -22.36,-13.8 -51.74,-7 -65.61,15.4 -13.64,22 -7.16,50.8 14.35,65 61.27,40.2 124.21,58.7 186.64,74.3 62.96,15.1 124.34,24.8 189.47,30.9 29.26,2.7 55.2,-18.8 57.95,-48.1 2.74,-29.2 -18.76,-55.1 -48.02,-57.9 -0.47,0 -0.91,-0.1 -1.38,-0.1 l -1.79,-0.1" style="fill:#1a1a1a;fill-opacity:1;fill-rule:nonzero;stroke:none" transform="matrix(0.13333333,0,0,-0.13333333,0,2666.6667)"/>
      <path id="path23" d="m 2826.4,10566.9 c 6.73,-45.5 -18.92,-87 -57.3,-92.7 -38.39,-5.7 -74.96,26.6 -81.7,72.1 -6.74,45.6 18.91,87.1 57.3,92.8 38.38,5.6 74.96,-26.7 81.7,-72.2" style="fill:#1a1a1a;fill-opacity:1;fill-rule:nonzero;stroke:none" transform="matrix(0.13333333,0,0,-0.13333333,0,2666.6667)"/>
      <path id="path24" d="m 3359.23,10851.7 c 56.37,9.4 116.83,15.7 174.68,17 57.73,1.3 116.76,-2.4 163.94,-18.3 l 2.36,-0.8 c 24.91,-8.5 51.97,4.9 60.41,29.8 8.3,24.5 -4.55,51.1 -28.71,60 -68.79,25.3 -134.3,29.1 -198.65,30.2 -64.73,0.3 -126.71,-4.2 -191.52,-13 -29.12,-4 -49.51,-30.8 -45.55,-59.9 3.97,-29.1 30.78,-49.5 59.9,-45.5 0.47,0 0.91,0.1 1.37,0.2 l 1.77,0.3" style="fill:#1a1a1a;fill-opacity:1;fill-rule:nonzero;stroke:none" transform="matrix(0.13333333,0,0,-0.13333333,0,2666.6667)"/>
      <path id="path25" d="m 3457.89,10641.7 c 3.77,-45.9 38.16,-80.5 76.84,-77.3 38.67,3.1 66.96,42.9 63.2,88.8 -3.76,45.8 -38.16,80.5 -76.83,77.3 -38.67,-3.2 -66.97,-42.9 -63.21,-88.8" style="fill:#1a1a1a;fill-opacity:1;fill-rule:nonzero;stroke:none" transform="matrix(0.13333333,0,0,-0.13333333,0,2666.6667)"/>
      <path id="path26" d="m 2931,9535.7 c 24.13,-16.4 107.99,3.8 135.13,9.6 46.2,9.8 99.04,27.4 128,67.3 33.12,45.8 17.74,114.8 13.62,167 -1.17,14.9 1.38,56.1 -10.96,68.4 0,0 121.07,18.2 122.17,18.4 -10.82,-1.7 21.59,-172.3 26.74,-186.2 13.75,-37.2 51.15,-58.2 87.85,-67.5 38.38,-9.7 80.19,-10.8 119.52,-7.9 9.67,0.7 104.33,8.8 105.18,18.7 -0.72,-8.4 -6.86,-15.1 -12.73,-21.2 -61.7,-63.2 -130.01,-119.8 -198.25,-175.8 0,0 -323.79,-27.5 -332.95,-18.3 -9.15,9.1 -182.96,127.2 -183.32,127.5" style="fill:#1a1a1a;fill-opacity:1;fill-rule:nonzero;stroke:none" transform="matrix(0.13333333,0,0,-0.13333333,0,2666.6667)"/>
      <path id="path27" d="M 3534.02,9985.5 C 3491.5,9910 3401.33,9847 3287.7,9825 c -151.03,-29.3 -291.78,22 -346.03,117.3 0,1.4 1.47,2.9 2.94,4.4 19.06,16.1 38.86,30 60.1,41.8 l 443.53,52.8 c 34.46,-7.4 65.26,-20.6 85.78,-55.8" style="fill:#fcfcfc;fill-opacity:1;fill-rule:nonzero;stroke:none" transform="matrix(0.13333333,0,0,-0.13333333,0,2666.6667)"/>
      <path id="path28" d="m 2902.33,9475.2 c -9.52,92.4 -35.93,388 2.66,476 v 6 l 13.17,14.9 c 24.41,20.8 46.03,35.9 68.87,48.5 71.88,42.1 161.51,66.3 258.3,69.7 53.2,2.5 105.6,0.6 155.93,-5.3 l 12.46,-1.5 c 14.31,-1.7 28.35,-3.4 42.38,-6.5 35.51,-7.5 80.25,-22.7 109.6,-73 30.43,-52 43.46,-108.2 56.13,-162.6 3.22,-14 6.51,-28 10.03,-41.8 21.19,-84.6 27.77,-156.2 20.68,-225.4 l -72.88,7.5 c 6.09,60.4 0.14,124 -18.9,199.9 -3.58,14.2 -6.94,28.7 -10.38,43.2 -11.88,51.3 -23.12,99.7 -48.04,142.2 -12.02,20.8 -29.35,31.5 -61.71,38.4 -11.88,2.6 -23.55,3.9 -35.43,5.3 l -12.82,1.5 c -46.03,5.4 -94.57,7.1 -144.11,4.9 -85.05,-3 -162.8,-23.8 -225.02,-60.3 -17.97,-9.8 -34.5,-21.2 -51.11,-34.9 l -0.58,-0.8 c -21.33,-32.6 -15.31,-253.1 3.65,-438.4 l -72.88,-7.5" style="fill:#1a1a1a;fill-opacity:1;fill-rule:nonzero;stroke:none" transform="matrix(0.13333333,0,0,-0.13333333,0,2666.6667)"/>
      <path id="path29" d="m 3111.77,10246.9 c -3.58,0 -7.04,1.9 -8.84,5.3 -2.59,4.8 -0.74,10.9 4.14,13.5 l 78.82,42 c 25.06,13.3 39.01,37.4 35.55,61.5 l -40.02,277.6 c -0.79,5.5 3,10.6 8.47,11.4 5.43,0.7 10.53,-3 11.32,-8.5 l 40.02,-277.7 c 4.68,-32.5 -13.35,-64.7 -45.94,-82 l -78.83,-42 c -1.49,-0.8 -3.11,-1.1 -4.69,-1.1" style="fill:#1a1a1a;fill-opacity:1;fill-rule:nonzero;stroke:none" transform="matrix(0.13333333,0,0,-0.13333333,0,2666.6667)"/>
      <path id="path30" d="m 3491.11,2951.4 v 0 z M 3561.9,2003 c -10.82,0 -19.72,8.6 -19.98,19.5 -7.83,331.1 -28.14,869 -49.81,926.5 -72.69,43.4 -431.65,155.4 -614.24,209.5 -10.59,3.1 -16.63,14.2 -13.5,24.8 3.13,10.6 14.26,16.6 24.86,13.5 22.14,-6.5 543.37,-161.2 628.14,-216.4 13.25,-8.6 29.73,-19.3 49.45,-494.5 9.54,-229.9 15.04,-460.1 15.09,-462.4 0.26,-11.1 -8.48,-20.2 -19.52,-20.5 -0.16,0 -0.32,0 -0.49,0" style="fill:#666b6d;fill-opacity:1;fill-rule:nonzero;stroke:none" transform="matrix(0.13333333,0,0,-0.13333333,0,2666.6667)"/>
      <path id="path31" d="m 2336.35,6004.4 c -4.19,0 -8.32,1.3 -11.77,3.9 -4.9,3.5 -7.91,9.1 -8.21,15.2 -2.88,59.5 -83.02,1009.4 -83.83,1019 -0.93,11 7.24,20.7 18.25,21.6 10.97,0.9 20.68,-7.2 21.61,-18.3 3.07,-36.4 70.51,-835.7 82.27,-995.8 112.05,30.1 593.53,158.2 786.16,196.3 10.83,2.2 21.36,-4.9 23.5,-15.7 2.14,-10.9 -4.9,-21.4 -15.74,-23.5 -216.26,-42.8 -801.15,-200.4 -807.03,-202 -1.72,-0.5 -3.47,-0.7 -5.21,-0.7" style="fill:#1d1647;fill-opacity:1;fill-rule:nonzero;stroke:none" transform="matrix(0.13333333,0,0,-0.13333333,0,2666.6667)"/>
      <path id="path32" d="m 1812.38,4528.9 c -63.45,0 -121.34,6.5 -169.01,22.1 -286.92,94 -483.22,865.1 -491.43,897.9 -2.69,10.7 3.82,21.6 14.53,24.2 10.7,2.7 21.58,-3.8 24.27,-14.5 1.96,-7.8 199.01,-782.4 465.09,-869.6 270.11,-88.5 920.97,142.2 927.51,144.5 10.38,3.8 21.84,-1.7 25.57,-12.1 3.72,-10.4 -1.7,-21.8 -12.1,-25.5 -22.65,-8.1 -471.23,-167 -784.43,-167" style="fill:#1d1647;fill-opacity:1;fill-rule:nonzero;stroke:none" transform="matrix(0.13333333,0,0,-0.13333333,0,2666.6667)"/>
      <path id="path33" d="m 3380.08,4981.3 c -7.33,0 -14.39,4.1 -17.89,11.1 -4.95,9.8 -0.95,21.8 8.92,26.8 l 608.66,305 c 9.88,4.9 21.9,0.9 26.84,-8.9 4.95,-9.9 0.95,-21.9 -8.92,-26.9 l -608.66,-305 c -2.88,-1.4 -5.93,-2.1 -8.95,-2.1" style="fill:#1d1647;fill-opacity:1;fill-rule:nonzero;stroke:none" transform="matrix(0.13333333,0,0,-0.13333333,0,2666.6667)"/>
      <path id="path34" d="m 4805.44,5929.4 c -1.06,0 -2.12,0 -3.19,0.2 -10.91,1.8 -18.33,12 -16.58,22.9 L 4953.86,7002 c 1.75,10.9 12.06,18.4 22.91,16.6 10.91,-1.8 18.33,-12 16.58,-22.9 L 4825.16,5946.2 c -1.57,-9.8 -10.07,-16.8 -19.72,-16.8" style="fill:#1d1647;fill-opacity:1;fill-rule:nonzero;stroke:none" transform="matrix(0.13333333,0,0,-0.13333333,0,2666.6667)"/>
      <path id="path35" d="m 5100.99,4634.5 c -1.02,0 -2.05,0.1 -3.09,0.2 l -1008.19,156.5 c -10.92,1.7 -18.39,11.9 -16.7,22.8 1.69,10.9 11.89,18.4 22.83,16.7 l 1008.19,-156.4 c 10.92,-1.7 18.39,-12 16.7,-22.9 -1.54,-9.8 -10.05,-16.9 -19.74,-16.9" style="fill:#1d1647;fill-opacity:1;fill-rule:nonzero;stroke:none" transform="matrix(0.13333333,0,0,-0.13333333,0,2666.6667)"/>
      <path id="path36" d="m 10147.1,10787.9 -181.7,-663.8 391.9,-458.8 559.9,280.7 -23.5,699.2 -746.6,142.7" style="fill:#f8bd8c;fill-opacity:1;fill-rule:nonzero;stroke:none" transform="matrix(0.13333333,0,0,-0.13333333,0,2666.6667)"/>
      <path id="path37" d="M 12147.7,4929.7 V 1637.8 h -1669.6 v 3208.5 l 1560.1,77.9 109.5,5.5" style="fill:#31185e;fill-opacity:1;fill-rule:nonzero;stroke:none" transform="matrix(0.13333333,0,0,-0.13333333,0,2666.6667)"/>
      <path id="path38" d="m 11020.7,4776.7 -57.1,-158 -56.2,-155.9 -189.2,-523.7 -240.1,-664.9 -385.6,-1636.4 H 8581.97 c 0.87,-4.6 1.25,-7 1.25,-7 l -207.38,-5 1.45,12 83.24,670.2 12.15,98.3 32.6,262.9 30.58,246.1 23.06,186 108.03,870.5 29.42,236.9 70.51,568 h 2253.82" style="fill:#31185e;fill-opacity:1;fill-rule:nonzero;stroke:none" transform="matrix(0.13333333,0,0,-0.13333333,0,2666.6667)"/>
      <path id="path39" d="m 10008.2,10246.1 c 0,0 -820.87,-501.1 -1182.6,-677.2 -361.73,-176 -598.24,-433.4 -681.72,-582.3 -83.47,-149 -278.25,-284.5 -264.34,-379.2 13.91,-94.9 -319.99,-501.2 -389.55,-839.7 -69.57,-338.6 -194.78,-1462.7 -194.78,-1503.3 0,-40.7 222.6,-975.2 222.6,-975.2 0,0 653.9,-650 793.02,-799 139.13,-149 556.51,-392.8 612.16,-392.8 55.65,0 403.47,230.3 389.55,460.5 -13.91,230.3 -111.3,893.9 -208.69,1002.2 -76.15,84.7 -169.33,161.2 -239.6,274.7 -19.59,31.6 -37.4,66.1 -52.56,104.5 -69.57,176.1 125.21,595.9 125.21,595.9 0,0 626.07,1489.8 598.25,1692.9 -27.83,203.2 180.86,921 125.21,1110.6 -55.65,189.6 347.84,907.4 347.84,907.4" style="fill:#c5a2fd;fill-opacity:1;fill-rule:nonzero;stroke:none" transform="matrix(0.13333333,0,0,-0.13333333,0,2666.6667)"/>
      <path id="path40" d="m 12220.3,8418.5 c 0,0 139.1,-1910.4 125.2,-2235.4 -13.9,-325 -81.5,-514.6 1,-880.3 82.5,-365.7 42.7,-474 0,-609.5 -42.7,-135.4 -571.4,-121.8 -571.4,-121.8 l -2477.37,144.2 -931.25,1345.5 1210.4,3765 431.32,419.9 c 0,0 493.9,-419.9 904.3,-169.3 0,0 1140.8,-643.3 1300.8,-765.2 160,-121.9 7,-893.1 7,-893.1" style="fill:#c5a2fd;fill-opacity:1;fill-rule:nonzero;stroke:none" transform="matrix(0.13333333,0,0,-0.13333333,0,2666.6667)"/>
      <path id="path41" d="m 12229.6,9261.9 c 0,0 398.8,-397.2 389.5,-659.1 -9.3,-261.8 102,-1236.9 83.5,-1516.8 -18.6,-279.9 27.8,-288.9 64.9,-496.6 37.1,-207.7 190.2,-623 204.1,-1083.5 13.9,-460.4 215.6,-792.2 76.5,-1022.5 -139.1,-230.2 -243.5,-297.9 -243.5,-297.9 0,0 -34.8,351.3 -97.4,385.6 -62.6,34.2 -360.7,122.2 -360.7,122.2 l -330.3,3647.7 213.4,920.9" style="fill:#c5a2fd;fill-opacity:1;fill-rule:nonzero;stroke:none" transform="matrix(0.13333333,0,0,-0.13333333,0,2666.6667)"/>
      <path id="path42" d="m 10057.4,10695.6 c -40,93.3 266.8,-516.5 580,-482.3 268.7,29.3 279.8,525.8 279.8,525.8 0,0 -95.4,-156.8 -378.9,-157.1 -316.2,-0.4 -480.9,113.6 -480.9,113.6 v 0 0" style="fill:#eab186;fill-opacity:1;fill-rule:nonzero;stroke:none" transform="matrix(0.13333333,0,0,-0.13333333,0,2666.6667)"/>
      <path id="path43" d="m 11473.1,11485.3 c -7.3,-134 -96.1,-238.2 -198.5,-232.6 -102.3,5.5 -179.4,118.6 -172.2,252.6 7.2,134 96.1,238.1 198.4,232.6 102.4,-5.5 179.5,-118.6 172.3,-252.6" style="fill:#f2b588;fill-opacity:1;fill-rule:nonzero;stroke:none" transform="matrix(0.13333333,0,0,-0.13333333,0,2666.6667)"/>
      <path id="path44" d="m 9990.38,11567.2 c -7.23,-133.9 -96.07,-238.1 -198.43,-232.6 -102.36,5.6 -179.47,118.7 -172.24,252.7 7.23,133.9 96.07,238.1 198.43,232.5 102.36,-5.5 179.47,-118.6 172.24,-252.6" style="fill:#f2b588;fill-opacity:1;fill-rule:nonzero;stroke:none" transform="matrix(0.13333333,0,0,-0.13333333,0,2666.6667)"/>
      <path id="path45" d="m 11389.5,11491.7 c -97.1,-570.4 -427.9,-1060.6 -883.8,-1036 -455.9,24.6 -695.28,449.2 -767.2,1125.1 -63.1,593 427.9,1060.7 883.8,1036.1 455.9,-24.6 867.4,-536.7 767.2,-1125.2" style="fill:#f8bd8c;fill-opacity:1;fill-rule:nonzero;stroke:none" transform="matrix(0.13333333,0,0,-0.13333333,0,2666.6667)"/>
      <path id="path46" d="m 10343.1,12392.6 c 1.4,-37.8 -4.5,-98.5 -0.8,-116.8 10.1,-50.4 36.6,-99.5 79.5,-122.8 29.6,-16.1 63.8,-18.5 97.1,-19.4 121.1,-3.2 247.6,49 363.8,43.6 53.5,-2.5 94.1,-41.2 139.5,-71.5 83.9,-56.1 238.5,-42.9 238.6,-43 79.2,-110.7 86.8,-275.7 167.5,-377.9 19.5,12 37,27.9 55.2,43.3 108.6,91.4 115,108 79.8,251.4 -28.1,114.8 49,163.8 88.1,255.8 53.7,126.1 146.9,243 51.9,341.3 -123.5,127.8 -213.3,230.5 -292,397.7 -43.9,93.3 -102.8,195.3 -199.1,213.2 -155.3,28.9 -273.5,-141.7 -429.8,-37.6 -56.9,38 -111.6,86.8 -178.3,95.4 -69.2,8.8 -136.8,-28.1 -193.1,-72.5 -70.3,-55.5 -134.1,-120.6 -216.1,-156.3 -135.3,-58.7 -290.82,-82.3 -401.86,-192.1 -74.25,-73.4 -115.23,-172.9 -152.69,-271.2 -31.75,-83.2 -87.98,-178.9 -96.21,-268.3 -9.28,-100.7 49.37,-316.5 129.07,-380.2 38.48,-30.8 66.91,-104.3 66.91,-104.3 0,0 122.51,225.5 143.13,277 20.62,51.5 121.45,184.6 191.05,233.4 69.5,48.8 92.7,66.7 147.6,92.4 36.2,17 118.9,57 121.2,-10.6" style="fill:#31185e;fill-opacity:1;fill-rule:nonzero;stroke:none" transform="matrix(0.13333333,0,0,-0.13333333,0,2666.6667)"/>
      <path id="path47" d="m 10191.7,11605.1 c -2.1,-39.6 -36,-70 -75.6,-67.8 -39.6,2.1 -70,36 -67.9,75.6 2.2,39.6 36,70 75.6,67.9 39.7,-2.2 70.1,-36 67.9,-75.7" style="fill:#1b191b;fill-opacity:1;fill-rule:nonzero;stroke:none" transform="matrix(0.13333333,0,0,-0.13333333,0,2666.6667)"/>
      <path id="path48" d="m 11048.7,11558.9 c -2.1,-39.6 -36,-70 -75.6,-67.9 -39.7,2.1 -70,36 -67.9,75.6 2.1,39.7 36,70 75.6,67.9 39.6,-2.1 70,-36 67.9,-75.6" style="fill:#1b191b;fill-opacity:1;fill-rule:nonzero;stroke:none" transform="matrix(0.13333333,0,0,-0.13333333,0,2666.6667)"/>
      <path id="path49" d="m 9947.4,11811.9 c -18.73,0.1 -36.45,11.2 -44.1,29.5 -10.25,24.5 1.39,52.8 25.88,63 231.82,96.6 406.92,4.1 414.22,0.2 23.4,-12.7 32.1,-41.9 19.5,-65.3 -12.7,-23.3 -41.6,-32 -65.1,-19.5 -6.7,3.6 -144.5,73.7 -331.58,-4.3 -6.16,-2.5 -12.56,-3.7 -18.82,-3.6" style="fill:#31185e;fill-opacity:1;fill-rule:nonzero;stroke:none" transform="matrix(0.13333333,0,0,-0.13333333,0,2666.6667)"/>
      <path id="path50" d="m 10819.3,11781.3 c -18.7,1.3 -35.7,13.5 -42.2,32.3 -8.6,25.1 4.8,52.6 29.8,61.3 237.5,81.6 406.4,-21.6 413.5,-26 22.5,-14.2 29.3,-43.9 15.3,-66.4 -14.2,-22.5 -43.6,-29.4 -66.2,-15.4 -6.5,4 -139.6,82.7 -331.2,16.7 -6.3,-2.1 -12.8,-2.9 -19,-2.5" style="fill:#31185e;fill-opacity:1;fill-rule:nonzero;stroke:none" transform="matrix(0.13333333,0,0,-0.13333333,0,2666.6667)"/>
      <path id="path51" d="m 11297.8,11596.6 c -0.1,-41.2 -7.4,-130.7 -34.3,-193.6 -20.9,-48.9 -49.7,-81 -92.6,-100.9 -15.9,-7.4 -33.7,-13.2 -53.8,-17.5 -74.2,-15.8 -169.5,-10.1 -237,14.2 -72.9,26.2 -124.1,86 -144.1,168.3 -22.1,91.2 -23.3,180.2 -12,213.3 0.9,1.1 1.7,2.3 2.4,3.6 22.1,34.7 72.9,62.5 200.8,76.3 118.9,12.9 236,-8.8 298,-38.9 4.8,-2.2 9.1,-4.6 13.2,-6.9 42.6,-24.9 55.5,-87 59.4,-117.4 z m -892.5,-111.7 c -28.6,-79.7 -85.9,-133.6 -161.3,-151.7 -69.8,-16.9 -165.1,-12.3 -237.1,11.4 -35.53,11.7 -63.32,27.4 -84.82,48.8 -21.9,21.7 -37.33,49.3 -48.14,84.6 -19.97,65.4 -17.46,155.2 -13.11,196.2 v 0.4 c 6.26,26.1 21.99,75.4 55.84,100.9 4.92,3.7 10.23,6.9 15.92,9.5 60.67,27.1 188.71,39.6 314.31,12 125.6,-27.5 173.1,-60.5 191.3,-97.5 0.6,-1.3 1.4,-2.6 2.1,-3.8 7.7,-34.1 -3.1,-122.4 -35,-210.8 z m 1011.6,215.5 c 0,0.1 0,0.1 0,0.1 -1.6,10.4 -6.6,19.9 -13.8,27.4 -1.7,1.8 -3.6,3.4 -5.6,4.8 0,0.1 -0.1,0.1 -0.1,0.1 -3.7,2.9 -7.9,5.2 -12.4,6.9 -16.9,6.4 -40.4,13.8 -71.3,20.7 -18.2,4 -47.3,9.6 -83.4,15.3 -34.5,5.6 -75.4,11.4 -119.1,16.2 h -0.3 c -62.5,7 -130.8,12 -194.5,11.9 h -0.1 c -34.8,-0.1 -68.3,-1.7 -98.8,-5.4 -10,-1.3 -19.4,-2.5 -28.1,-3.9 -114.9,-17.6 -120.2,-45.9 -119.2,-61.6 0.2,-2.5 -2.4,-4 -4.5,-2.7 -24.1,14.9 -52.5,21.2 -80.3,22.7 -27.7,1.5 -56.7,-1.7 -82.3,-13.9 -2.2,-1.1 -4.6,0.6 -4.2,3.2 2.9,16.5 -0.1,48.5 -139.6,81 -2.7,0.7 -5.5,1.2 -8.3,1.8 -35.6,7.7 -75.5,13.2 -117,16.8 h -0.1 c -48.7,4.3 -99.5,6.2 -147.8,6.5 h -0.1 c -71.5,0.5 -137.4,-2.4 -183.22,-5.6 -17.65,-1.3 -32.21,-2.5 -43.02,-3.8 -33.28,-3.8 -58.93,-9 -77.26,-13.6 -9.55,-2.4 -17.75,-7.6 -23.83,-14.8 l -0.09,-0.1 c -7.24,-8.1 -11.68,-18.4 -12.25,-29.7 0,-0.8 -0.1,-1.8 -0.1,-2.7 0,-19.1 10.71,-37.3 28.36,-44.5 7.33,-3 14.95,-8.3 21.7,-17.3 17.66,-23.6 22.19,-43.7 43.41,-53.6 1.15,-0.5 1.83,-1.6 1.74,-2.7 -3.29,-46.7 -2.8,-126.3 15.52,-186.5 11.68,-38.1 28.94,-68.3 53.35,-92.1 23.24,-23 53.15,-40 90.79,-52.4 36.6,-12 79.1,-19.4 121.3,-21.6 44.3,-2.4 88.6,0.7 125.9,9.8 81.1,19.5 142.8,77.2 173.4,162.3 27.9,77.4 39.2,153.5 37.3,198 6.3,-2 12.1,-0.8 18,4.2 l 0.8,0.1 c 1.1,0.9 2.7,2.1 3.7,3.3 9.8,9 40.7,31.7 101.8,28.4 61.2,-3.4 89.4,-29.1 98.1,-39.1 1,-1.4 -0.1,-2.6 0.9,-3.7 h -2 c 4.5,-4.5 10.7,-6.7 16.5,-6.6 2,0 3.5,-1.3 3.3,-3.3 -5.9,-44.5 -0.9,-119.6 18,-197.3 21.3,-87.9 76.8,-151.9 155.4,-180.1 36.1,-13 80,-20.8 124.4,-23.3 42.2,-2.3 85.2,0.4 122.9,8.4 23.6,5.2 44.5,12.2 63.2,21.5 43.5,22 74,56.4 95.5,106.7 24.7,57.9 33.5,136.9 35.3,183.7 0,1.2 0.8,2.2 2,2.6 22,7.5 26.7,27.1 46.8,48.7 7,7.5 14.2,11.9 20.9,14.3 7.9,2.8 14.7,7.5 20.1,13.5 4.6,5.1 8.1,11.2 10.3,17.7 1.4,4.2 2.2,8.5 2.5,13.1 0,0.8 0.1,1.7 0.1,2.7 0,2.6 -0.2,5.1 -0.6,7.5" style="fill:#1b191b;fill-opacity:1;fill-rule:nonzero;stroke:none" transform="matrix(0.13333333,0,0,-0.13333333,0,2666.6667)"/>
      <path id="path52" d="m 10512,10852.8 c -89.4,0 -150.7,41.2 -151.7,41.8 -3.4,2.4 -4.2,7.1 -1.9,10.5 2.4,3.4 7,4.2 10.4,1.9 6.1,-4.2 150.8,-100.7 321.5,22 3.3,2.4 8,1.6 10.4,-1.7 2.4,-3.4 1.7,-8.1 -1.7,-10.5 -67.8,-48.8 -132.6,-64 -187,-64" style="fill:#000000;fill-opacity:1;fill-rule:nonzero;stroke:none" transform="matrix(0.13333333,0,0,-0.13333333,0,2666.6667)"/>
      <path id="path53" d="m 10530.2,11129.1 c -1.4,0 -2.8,0.3 -4,1.1 -1.5,1 -36.3,23.5 -39.1,51.1 -2.5,24.7 7.8,150.6 8.3,155.9 0.3,4.1 4,7.2 8.1,6.9 4.1,-0.4 7.2,-4 6.8,-8.2 -3.7,-44.7 -10.2,-134.4 -8.3,-153.1 1.8,-17 23.9,-34.6 32.2,-39.9 3.5,-2.2 4.6,-6.9 2.3,-10.4 -1.4,-2.2 -3.8,-3.4 -6.3,-3.4" style="fill:#000000;fill-opacity:1;fill-rule:nonzero;stroke:none" transform="matrix(0.13333333,0,0,-0.13333333,0,2666.6667)"/>
      <path id="path54" d="m 8733.52,7395.4 c -2.87,0 -5.78,0.7 -8.54,2 -9.99,4.7 -14.25,16.6 -9.53,26.6 21.78,46 203.93,591.6 207.05,633.6 0.82,11 10.46,19.3 21.43,18.4 11.01,-0.8 19.28,-10.4 18.46,-21.4 -3.71,-49.9 -191.34,-606.6 -210.78,-647.7 -3.42,-7.2 -10.6,-11.5 -18.09,-11.5" style="fill:#9e4aff;fill-opacity:1;fill-rule:nonzero;stroke:none" transform="matrix(0.13333333,0,0,-0.13333333,0,2666.6667)"/>
      <path id="path55" d="m 10639.5,9971.6 c -77.6,0 -171.6,14.4 -282.4,54.8 -14.6,5.3 -218.1,109 -258.7,129.8 -9.9,5 -13.8,17.1 -8.7,26.9 5,9.8 17,13.8 26.9,8.7 92,-46.9 242.3,-123.1 254.3,-127.9 355.8,-129.5 526.1,25.8 527.8,27.4 8,7.6 20.7,7.2 28.3,-0.7 7.6,-8 7.3,-20.6 -0.7,-28.2 -5.3,-5.1 -97.7,-90.8 -286.8,-90.8" style="fill:#9e4aff;fill-opacity:1;fill-rule:nonzero;stroke:none" transform="matrix(0.13333333,0,0,-0.13333333,0,2666.6667)"/>
      <path id="path56" d="m 10478.1,3254.2 c -2.2,0 -4.5,0.4 -6.8,1.2 -10.4,3.7 -15.8,15.2 -12,25.6 l 240.1,664.9 c 3.8,10.4 15.2,15.8 25.6,12 10.4,-3.7 15.8,-15.2 12,-25.6 l -240.1,-664.9 c -2.9,-8.2 -10.6,-13.2 -18.8,-13.2" style="fill:#9e4aff;fill-opacity:1;fill-rule:nonzero;stroke:none" transform="matrix(0.13333333,0,0,-0.13333333,0,2666.6667)"/>
      <path id="path57" d="m 17471.7,9507.3 -1196.8,-21.2 84.6,978.2 H 17366 l 105.7,-957" style="fill:#f8bd8c;fill-opacity:1;fill-rule:nonzero;stroke:none" transform="matrix(0.13333333,0,0,-0.13333333,0,2666.6667)"/>
      <path id="path58" d="m 17714.5,11192.4 c 0,-639.1 -384.7,-1157.2 -859.4,-1157.2 -474.6,0 -859.3,518.1 -859.3,1157.2 0,265.3 -63.8,671.9 47.7,867 157.1,275.1 534,290.2 811.6,290.2 276.2,0 603,64.3 760.3,-208.2 112.9,-195.9 99.1,-681.7 99.1,-949" style="fill:#1a1a1a;fill-opacity:1;fill-rule:nonzero;stroke:none" transform="matrix(0.13333333,0,0,-0.13333333,0,2666.6667)"/>
      <path id="path59" d="m 17845.4,11679 c 0,0 91.7,896.9 -49.4,1045.3 -141,148.3 -62.4,190.6 -214.5,233 -152.1,42.4 -154.3,120.1 -405,120.1 -43.2,0 -64.3,28.2 -304.1,28.2 -77.5,0 -204.5,63.6 -384.3,-35.3 -179.7,-98.9 -294.3,38.9 -423.9,-128 -129.5,-166.8 -178.9,-76.8 -291.7,-338.1 -112.8,-261.3 35.3,-388.4 63.5,-670.9 28.2,-282.5 176.4,-508.5 176.4,-508.5 l 1792.8,57.5 40.2,196.7" style="fill:#1a1a1a;fill-opacity:1;fill-rule:nonzero;stroke:none" transform="matrix(0.13333333,0,0,-0.13333333,0,2666.6667)"/>
      <path id="path60" d="m 17714.5,11380.2 c 0,-639.1 -384.7,-1157.2 -859.4,-1157.2 -474.6,0 -859.3,518.1 -859.3,1157.2 0,265.3 -63.8,671.8 47.7,867 157.1,275 534,290.1 811.6,290.1 276.2,0 603,64.4 760.3,-208.2 112.9,-195.9 99.1,-681.7 99.1,-948.9" style="fill:#f8bd8c;fill-opacity:1;fill-rule:nonzero;stroke:none" transform="matrix(0.13333333,0,0,-0.13333333,0,2666.6667)"/>
      <path id="path61" d="m 16170.5,11315.2 c 11.2,-135.8 -50.6,-251.7 -137.9,-258.9 -87.3,-7.2 -167.1,97.1 -178.3,232.8 -11.1,135.8 50.6,251.7 138,258.9 87.3,7.2 167.1,-97 178.2,-232.8" style="fill:#f8bd8c;fill-opacity:1;fill-rule:nonzero;stroke:none" transform="matrix(0.13333333,0,0,-0.13333333,0,2666.6667)"/>
      <path id="path62" d="m 17524.7,11325.2 c -19.7,-134.8 34.7,-254.4 121.3,-267.1 86.7,-12.7 173,86.2 192.7,221 19.7,134.9 -34.6,254.4 -121.3,267.2 -86.7,12.7 -173,-86.3 -192.7,-221.1" style="fill:#f8bd8c;fill-opacity:1;fill-rule:nonzero;stroke:none" transform="matrix(0.13333333,0,0,-0.13333333,0,2666.6667)"/>
      <path id="path63" d="m 16599.8,11959.6 c -20.8,0.6 -38.9,0 -58.2,-0.7 -19,-0.7 -37.9,-2.2 -56.8,-3.9 -37.8,-3.7 -75.5,-8.9 -113,-16.3 -37.6,-7.5 -75.1,-16.8 -112,-29.6 -36.8,-13.1 -73.2,-29.5 -107.2,-51.4 -16.1,-10.3 -24.3,-30.4 -18.8,-49.7 6.7,-23.7 31.4,-37.4 55.1,-30.7 l 2.3,0.7 c 31.9,9 64.5,16.2 97.7,22.3 33.5,5.7 67.4,10.4 101.6,14.1 34.4,3.3 69,5.7 103.8,7.3 17.3,0.9 34.7,1.4 52,1.9 17.1,0.7 35.3,0.7 50.8,1 h 1.9 c 35.8,0.6 65.2,29.3 66.3,65.4 1.1,37.3 -28.2,68.4 -65.5,69.6" style="fill:#1a1a1a;fill-opacity:1;fill-rule:nonzero;stroke:none" transform="matrix(0.13333333,0,0,-0.13333333,0,2666.6667)"/>
      <path id="path64" d="m 17497.4,11857.7 c -34,21.9 -70.4,38.3 -107.3,51.4 -36.8,12.8 -74.3,22.1 -111.9,29.6 -37.6,7.4 -75.3,12.6 -113,16.3 -18.9,1.7 -37.8,3.2 -56.8,3.9 -19.3,0.7 -37.4,1.3 -58.3,0.7 -35.8,-1.2 -64.9,-30.3 -65.4,-66.4 -0.6,-37.3 29.1,-68 66.4,-68.6 h 1.7 c 15.5,-0.3 33.8,-0.3 50.8,-1 17.3,-0.5 34.7,-1 52.1,-1.9 34.7,-1.6 69.4,-4 103.7,-7.3 34.3,-3.7 68.2,-8.4 101.7,-14.1 33.2,-6.1 65.8,-13.3 97.6,-22.3 l 2.4,-0.7 c 18.4,-5.2 38.8,1.9 49.7,18.8 13.3,20.7 7.3,48.3 -13.4,61.6" style="fill:#1a1a1a;fill-opacity:1;fill-rule:nonzero;stroke:none" transform="matrix(0.13333333,0,0,-0.13333333,0,2666.6667)"/>
      <path id="path65" d="m 16484.6,11502.5 c 0,-42.9 -28,-77.7 -62.5,-77.7 -34.6,0 -62.6,34.8 -62.6,77.7 0,42.9 28,77.7 62.6,77.7 34.5,0 62.5,-34.8 62.5,-77.7" style="fill:#1a1a1a;fill-opacity:1;fill-rule:nonzero;stroke:none" transform="matrix(0.13333333,0,0,-0.13333333,0,2666.6667)"/>
      <path id="path66" d="m 17301.6,11502.5 c 0,-42.9 -28,-77.7 -62.6,-77.7 -34.5,0 -62.5,34.8 -62.5,77.7 0,42.9 28,77.7 62.5,77.7 34.6,0 62.6,-34.8 62.6,-77.7" style="fill:#1a1a1a;fill-opacity:1;fill-rule:nonzero;stroke:none" transform="matrix(0.13333333,0,0,-0.13333333,0,2666.6667)"/>
      <path id="path67" d="m 16856.5,11029.6 c -0.1,0 -0.2,0 -0.2,0 -9.2,0.4 -90.2,4.7 -108.5,30.6 -3.9,5.5 -4.9,11.8 -2.9,18.2 11,36.4 52.4,276.9 52.9,279.3 0.4,2.7 3,4.6 5.7,4.1 2.8,-0.5 4.6,-3 4.1,-5.8 -1.7,-9.9 -41.9,-243.6 -53.2,-280.5 -1,-3.5 -0.6,-6.5 1.6,-9.5 13.1,-18.6 77.1,-25.4 100.7,-26.4 2.8,-0.2 4.9,-2.5 4.8,-5.3 -0.1,-2.6 -2.3,-4.7 -5,-4.7" style="fill:#2c2a30;fill-opacity:1;fill-rule:nonzero;stroke:none" transform="matrix(0.13333333,0,0,-0.13333333,0,2666.6667)"/>
      <path id="path68" d="m 15890.4,12438.5 c 0,0 192.4,-276.8 371.7,-228.2 179.3,48.6 281.2,253.9 366.2,161 84.9,-92.9 232.3,-77.9 347.3,-5.4 115.1,72.4 77.4,-20.6 228.4,-44.4 151.1,-23.7 224.4,23.2 335,-116.9 110.5,-140.1 223.8,-73.2 186,116.9 -37.7,190.2 -294.4,598.5 -521,481.9 -226.5,-116.7 -1313.6,-364.9 -1313.6,-364.9" style="fill:#1a1a1a;fill-opacity:1;fill-rule:nonzero;stroke:none" transform="matrix(0.13333333,0,0,-0.13333333,0,2666.6667)"/>
      <path id="path69" d="m 17600.6,11481.2 c -0.4,-1.8 -0.8,-3.6 -1.2,-5.5 -11.7,-54.9 -34.2,-138.3 -77.2,-173.8 -3.3,-2.8 -6.8,-5.2 -10.3,-7.3 -58.6,-34.9 -174.5,-53.9 -271.5,-41.6 -97,12.4 -161.6,49.3 -200.1,121.8 -9.9,18.5 -21.2,48.2 -31.1,81.9 -21.3,73.4 -36.2,166.3 -15.1,206.4 30.8,58.6 193.9,78.7 269.4,83.3 100,6.2 251,3.1 311,-38.6 54.1,-37.5 41.8,-144.2 29.9,-207.7 -1.3,-6.8 -2.7,-13.2 -3.8,-18.9 z m -948.2,-106.4 c -38.5,-72.5 -103.2,-109.4 -200.2,-121.8 -96.9,-12.3 -212.9,6.7 -271.4,41.6 -3.3,1.9 -6.4,4.1 -9.4,6.5 -32.3,26 -53,78.7 -66.5,126.7 -5.3,19.3 -9.5,37.7 -12.8,53.4 -1.9,8.7 -3.9,18.8 -5.8,30 v 0.1 c -11.2,64.2 -19.2,161.1 31.9,196.5 60,41.7 211,44.8 311,38.6 75.4,-4.6 238.5,-24.7 269.3,-83.3 22.2,-42.1 4.8,-142.1 -18.3,-216.9 -9.1,-29.3 -19,-54.8 -27.8,-71.4 z m 1059.7,402.9 c -3.7,1 -7.4,1.9 -11.2,2.7 -57.6,13.5 -120.9,21.5 -185.4,25.6 -65.4,4.2 -132.1,4.1 -195.6,0.8 -0.1,0 -0.1,0 -0.2,0 -124.2,-6.4 -236.3,-24.7 -302.5,-46.5 -53.7,-17.8 -117,-42.9 -170.9,-42.9 -53.8,0 -117.1,25.1 -170.8,42.9 -72,23.7 -198.2,43.3 -335.3,47.9 h -0.1 c -0.1,0 -0.1,0 -0.2,0 -67.2,2.2 -136.9,0.9 -204.2,-5.4 -54.6,-5 -107.5,-13.2 -156,-25.4 -0.2,0 -0.4,0 -0.5,0 -15.2,-3.8 -29.9,-8 -44.2,-12.5 l 7,-128 c 0,0 19.4,4.3 36.2,-7.5 2.8,-2 5.6,-4.5 8.2,-7.6 4.6,-5.3 8.5,-12.5 11.3,-21.8 3.2,-10.7 7.5,-29.2 12.7,-52.1 7.9,-34.3 18.1,-78.5 31.2,-122.1 15.9,-53.5 36.1,-105.8 61,-137.4 17.7,-22.4 40.4,-39.6 66.1,-52.7 80.2,-41 190.1,-42.2 270.7,-38.7 143.3,6.1 237.1,69.9 277.1,177.8 9.5,25.6 18,50.3 25.7,73.4 25.2,74.8 43,134 62.5,156.3 13.9,15.8 29.4,17 41.6,17 12.2,0 27.8,-1.2 41.6,-17 19,-21.6 36.3,-78 60.2,-149.7 8.4,-25.1 17.7,-52 28,-80 40.1,-107.9 133.9,-171.7 277.1,-177.8 80.2,-3.4 189.3,-2.3 269.4,38.1 26.2,13.1 49.3,30.4 67.4,53.3 33.1,41.9 57.7,120.4 75.4,189.5 6.3,24.3 11.7,47.4 16.3,67.4 5.5,24.1 9.9,43.6 13.2,54.7 3.7,12.3 9.4,20.7 15.9,26.4 1.3,1.3 2.6,2.3 4.1,3.2 16.7,11.6 35.8,7.3 35.8,7.3 l 6.9,128 c -14.6,4.7 -29.8,9 -45.5,12.8" style="fill:#1a1a1a;fill-opacity:1;fill-rule:nonzero;stroke:none" transform="matrix(0.13333333,0,0,-0.13333333,0,2666.6667)"/>
      <path id="path70" d="m 18705.6,9486.5 c 0,0 708.8,-293.5 853.5,-464.7 144.7,-171.1 636.6,-1632.4 636.6,-2399.2 0,-766.8 115.7,-1944.1 0,-2165.7 -115.7,-221.6 -636.6,-1320.4 -983.8,-1574 -347.3,-253.5 -489.5,-234.6 -489.5,-234.6 l -85,1141.4 371.9,1805.6 -188.7,2720.8 -115,1170.4" style="fill:#e2b897;fill-opacity:1;fill-rule:nonzero;stroke:none" transform="matrix(0.13333333,0,0,-0.13333333,0,2666.6667)"/>
      <path id="path71" d="m 16830.8,3263.2 c -35.5,-166.2 -80.8,-818.1 -122.1,-1534.9 -1.6,-30.1 -3.3,-60.2 -5.1,-90.5 h -1796.9 c -19.7,1090.7 17,2138.4 17,2138.4 0,0 16.8,-0.9 47.4,-2.7 15.6,-1.1 34.8,-2.2 57.2,-3.8 2.1,-0.2 4.4,-0.3 6.6,-0.5 0.4,0 0.8,0 1.1,-0.1 163.2,-11.2 481.7,-37 805.9,-84.9 169.3,-25.1 340.4,-56.3 491.5,-94.6 212.1,-53.6 385.3,-121.3 460.1,-206.1 5.2,-5.9 10,-11.8 14.2,-17.8 v -0.1 c 2.8,-4.1 5.4,-8.1 7.8,-12.2 16.4,-28.3 22.2,-58.3 15.3,-90.2" style="fill:#755faa;fill-opacity:1;fill-rule:nonzero;stroke:none" transform="matrix(0.13333333,0,0,-0.13333333,0,2666.6667)"/>
      <path id="path72" d="M 18722.4,3589.6 V 1637.8 h -1989.1 l -17.2,77.1 -7.4,13.4 -391,718.3 -448.5,813 -74,134.2 -8.4,15.3 -99.7,180.5 h 3035.3" style="fill:#755faa;fill-opacity:1;fill-rule:nonzero;stroke:none" transform="matrix(0.13333333,0,0,-0.13333333,0,2666.6667)"/>
      <path id="path73" d="m 16274.9,9984 h 1196.8 l 155.1,-279.8 1078.8,-214.5 c 0,0 719.2,-345.1 740.3,-401 21.2,-56 275,-2947.4 169.2,-3656.2 -105.7,-708.8 -42.3,-1492.3 -148,-1846.7 -105.8,-354.5 -4378.5,-149.3 -4378.5,-149.3 0,0 -867.2,5260.4 -592.3,5502.9 275,242.5 1656.9,618.7 1702.8,699.5 45.8,80.9 75.8,345.1 75.8,345.1" style="fill:#ff7c90;fill-opacity:1;fill-rule:nonzero;stroke:none" transform="matrix(0.13333333,0,0,-0.13333333,0,2666.6667)"/>
      <path id="path74" d="m 19615.1,5402.8 c -105.7,-713.5 -42.3,-1502 -148.1,-1858.7 -38.1,-128.5 -597,-302.6 -1321.6,-321 -548.7,-13.9 -1190.8,147.7 -1736.2,160.8 -41.3,1 -82.1,1.9 -122.3,2.7 -676.2,14 -1198.3,7.2 -1198.3,7.2 0,0 -867.2,5294.7 -592.3,5538.8 241.2,214.1 1334,531.7 1629.9,661.4 l 857.7,-1514.1 749.1,1601.3 972.6,-194.7 c 0,0 719.2,-347.3 740.3,-403.7 21.1,-56.3 275,-2966.5 169.2,-3680" style="fill:#e2b897;fill-opacity:1;fill-rule:nonzero;stroke:none" transform="matrix(0.13333333,0,0,-0.13333333,0,2666.6667)"/>
      <path id="path75" d="m 18701.4,6289.8 c -10.9,0 -19.9,8.8 -20,19.8 l -12.7,906.6 c -1.6,113.1 -50.6,456.7 -51.1,460.1 -1.5,11 6.1,21.1 17,22.6 10.8,1.6 21.1,-6 22.6,-16.9 2.1,-14.2 49.9,-349.6 51.5,-465.2 l 12.7,-906.7 c 0.1,-11 -8.7,-20.1 -19.7,-20.3 -0.1,0 -0.2,0 -0.3,0" style="fill:#b08174;fill-opacity:1;fill-rule:nonzero;stroke:none" transform="matrix(0.13333333,0,0,-0.13333333,0,2666.6667)"/>
      <path id="path76" d="m 16560.3,10737.9 c 18.9,-97.8 152.7,-167 306.9,-156 134.1,9.6 240.4,76.8 265.2,159.2 l -572.1,-3.2" style="fill:none;fill-opacity:1;fill-rule:nonzero;stroke:none" transform="matrix(0.13333333,0,0,-0.13333333,0,2666.6667)"/>
      <path id="path77" d="m 16996,8058.5 c -7.2,0 -13.9,3.9 -17.4,10.2 l -408,720.1 c -5.4,9.6 -2.1,21.8 7.6,27.3 9.6,5.4 21.8,2.1 27.2,-7.6 l 388.9,-686.4 482.8,1032.1 c 4.7,10 16.6,14.3 26.6,9.6 10,-4.7 14.3,-16.6 9.6,-26.6 L 17014.1,8070 c -3.2,-6.7 -9.9,-11.2 -17.3,-11.5 -0.3,0 -0.6,0 -0.8,0" style="fill:#b08174;fill-opacity:1;fill-rule:nonzero;stroke:none" transform="matrix(0.13333333,0,0,-0.13333333,0,2666.6667)"/>
      <path id="path78" d="m 18035.2,3202.5 c -235.1,0 -518.1,18.2 -818.1,77 -746.4,146.5 -1253.5,100.7 -1258.5,100.2 -11.1,-0.9 -20.8,7.1 -21.8,18.1 -1.1,10.9 7,20.7 18,21.8 5.1,0.4 518,46.8 1270,-100.8 764.8,-150.1 1427.5,-31.5 1433.5,-30.1 10.7,2.4 21.5,-4.3 23.9,-15 2.5,-10.8 -4.1,-21.5 -14.9,-24 -3.6,-0.8 -256.7,-47.2 -632.1,-47.2" style="fill:#1d1647;fill-opacity:1;fill-rule:nonzero;stroke:none" transform="matrix(0.13333333,0,0,-0.13333333,0,2666.6667)"/>
      <path id="path79" d="m 16987.8,2072.2 c -11,0 -20,9 -20,20 v 540.2 c 0,1.4 0.1,2.8 0.4,4.2 l 63.5,299 c 2.3,10.8 12.9,17.8 23.7,15.4 10.8,-2.3 17.7,-12.9 15.4,-23.7 l -63,-297 v -538.1 c 0,-11 -9,-20 -20,-20" style="fill:#1d1647;fill-opacity:1;fill-rule:nonzero;stroke:none" transform="matrix(0.13333333,0,0,-0.13333333,0,2666.6667)"/>
      <path id="path80" d="m 7131.96,10427.4 c 0,0 247.75,91.6 471.69,-22.8 238.47,-121.9 359.51,-243.8 414.36,-1267.5 54.84,-1023.7 48.74,-1535.5 54.84,-1614.8 6.09,-79.2 -1949.93,-54.8 -1949.93,-54.8 v 2547.1 l 1009.04,412.8" style="fill:#0b0635;fill-opacity:1;fill-rule:nonzero;stroke:none" transform="matrix(0.13333333,0,0,-0.13333333,0,2666.6667)"/>
      <path id="path81" d="m 6144.37,7512.5 c 0,0 -995.79,-108.5 -977.13,-1824.5 18.75,-1716.1 -347.05,-1596.3 -47.92,-2818.5 0,0 676.64,-136.9 1064.39,139.7 l -39.34,3375.2 v 1128.1 0" style="fill:#fcfcfc;fill-opacity:1;fill-rule:nonzero;stroke:none" transform="matrix(0.13333333,0,0,-0.13333333,0,2666.6667)"/>
      <path id="path82" d="m 8571.66,1625.8 1.44,12 H 5379.06 c 31.93,190.9 104.85,473.2 194.55,784.3 8.3,28.8 16.79,58.1 25.37,87.4 l 0.49,1.7 c 31.63,108 65.01,218.5 99.06,329.2 l 1.64,5.4 c 155.01,503.9 324.39,1010.2 417.09,1283 0.09,0.2 0.09,0.3 0.09,0.4 21.9,64.3 39.46,115.5 51.51,150.7 v 0.2 c 12.25,35.2 18.91,54.4 18.91,54.4 h 2078.4 c 5.98,-17.3 16.59,-62 30.77,-128.2 v -0.1 c 3.57,-16.5 7.33,-34.3 11.29,-53.4 41.09,-197.8 104.37,-528.4 171.21,-886.3 0.1,-0.1 0.1,-0.1 0,-0.2 5.21,-27.8 10.42,-55.5 15.73,-83.5 29.9,-160.5 60.18,-324.7 89.41,-483.4 3.38,-18.6 6.75,-37 10.13,-55.5 7.33,-39.8 14.56,-79.1 21.7,-117.9 0.58,-3.4 1.26,-6.8 1.84,-10.2 6.65,-36.4 13.31,-72.4 19.67,-107.7 6.27,-34 12.35,-67.4 18.43,-100.1 64.43,-353.6 113.14,-624.3 121.44,-670.2 0.87,-4.6 1.25,-7 1.25,-7 l -207.38,-5" style="fill:#ff7c90;fill-opacity:1;fill-rule:nonzero;stroke:none" transform="matrix(0.13333333,0,0,-0.13333333,0,2666.6667)"/>
      <path id="path83" d="m 6189.71,7472.6 c 0,0 -451.61,-131.3 -390.71,-1080.5 60.91,-949.3 -451.25,-2126.4 286.31,-2263.3 l 2032.16,25.3 c 191.68,2.4 345.82,158.5 345.82,350.2 v 2989.5 l -425.96,73.9 -1847.62,-95.1 v 0" style="fill:#fcfcfc;fill-opacity:1;fill-rule:nonzero;stroke:none" transform="matrix(0.13333333,0,0,-0.13333333,0,2666.6667)"/>
      <path id="path84" d="m 7433.03,7814.8 -735.31,-22.1 25.24,631.5 h 673.5 l 36.57,-609.4" style="fill:#f8bd8c;fill-opacity:1;fill-rule:nonzero;stroke:none" transform="matrix(0.13333333,0,0,-0.13333333,0,2666.6667)"/>
      <path id="path85" d="m 6634.07,7908.1 h 938.62 c 60.62,0 112.91,-45 125.23,-107.7 l 53.28,-271.4 -1291.38,-50.1 47.97,315.4 c 9.97,65.6 63.48,113.8 126.28,113.8" style="fill:#fcfcfc;fill-opacity:1;fill-rule:nonzero;stroke:none" transform="matrix(0.13333333,0,0,-0.13333333,0,2666.6667)"/>
      <path id="path86" d="m 7410.18,8195.7 c -41.75,-88.6 -118.29,-176.6 -227.34,-188.8 -187.25,-21 -369.92,186.8 -460.05,301.8 -18,23 -26.75,42.2 -36.73,55.2 15.48,-9.2 39.48,-25.1 82.82,-41.2 72.24,-27.1 182.79,-55.2 329.8,-55 106.53,0.1 187.94,25.5 246.65,55 l 56.91,0.9 7.94,-127.9" style="fill:#eab186;fill-opacity:1;fill-rule:nonzero;stroke:none" transform="matrix(0.13333333,0,0,-0.13333333,0,2666.6667)"/>
      <path id="path87" d="m 7726.01,9165.9 c 15.93,-507.7 -286.56,-929.1 -675.63,-941.3 -389.08,-12.2 -717.4,389.4 -733.32,897 -15.94,507.7 286.56,929.1 675.63,941.3 389.07,12.2 717.39,-389.4 733.32,-897" style="fill:#f8bd8c;fill-opacity:1;fill-rule:nonzero;stroke:none" transform="matrix(0.13333333,0,0,-0.13333333,0,2666.6667)"/>
      <path id="path88" d="m 7886.51,9110.3 c 0,-105 -91.17,-206.5 -166.36,-206.5 -75.2,0 -136.16,85.1 -136.16,190.2 0,105.1 99.91,190.3 175.1,190.3 75.19,0 127.42,-68.9 127.42,-174" style="fill:#f8bd8c;fill-opacity:1;fill-rule:nonzero;stroke:none" transform="matrix(0.13333333,0,0,-0.13333333,0,2666.6667)"/>
      <path id="path89" d="m 7466.57,9438.8 c -5.66,0 -11.43,0.8 -17.09,2.7 -151.2,49.6 -250.73,4.5 -254.89,2.6 -27.21,-12.8 -59.95,-1.2 -72.87,26.1 -12.95,27.1 -1.79,59.5 25.28,72.7 5.67,2.8 141.08,66.8 336.61,2.8 28.78,-9.4 44.48,-40.4 35.05,-69.1 -7.57,-23.2 -29.03,-37.8 -52.09,-37.8" style="fill:#000000;fill-opacity:1;fill-rule:nonzero;stroke:none" transform="matrix(0.13333333,0,0,-0.13333333,0,2666.6667)"/>
      <path id="path90" d="m 6415.74,9351.9 c -17.59,0 -34.85,8.4 -45.42,24 -16.92,24.8 -10.82,58.6 13.92,75.7 5.18,3.6 129.29,87.6 332.29,53.9 29.88,-4.9 50.11,-33.1 45.16,-63 -4.94,-29.9 -33.36,-50 -63.05,-45.1 -156.87,25.8 -248.5,-33.7 -252.34,-36.2 -9.38,-6.3 -20.03,-9.3 -30.56,-9.3" style="fill:#000000;fill-opacity:1;fill-rule:nonzero;stroke:none" transform="matrix(0.13333333,0,0,-0.13333333,0,2666.6667)"/>
      <path id="path91" d="m 7018.67,8919.3 h -54.84 c -5.05,0 -9.14,4.1 -9.14,9.1 v 205.7 c 0,5 4.09,9.1 9.14,9.1 5.06,0 9.14,-4.1 9.14,-9.1 v -196.5 h 45.7 c 5.06,0 9.15,-4.2 9.15,-9.2 0,-5 -4.09,-9.1 -9.15,-9.1" style="fill:#000000;fill-opacity:1;fill-rule:nonzero;stroke:none" transform="matrix(0.13333333,0,0,-0.13333333,0,2666.6667)"/>
      <path id="path92" d="m 6671.34,9178.6 c 0,-42.2 -27.29,-76.5 -60.94,-76.5 -33.65,0 -60.94,34.3 -60.94,76.5 0,42.3 27.29,76.6 60.94,76.6 33.65,0 60.94,-34.3 60.94,-76.6" style="fill:#000000;fill-opacity:1;fill-rule:nonzero;stroke:none" transform="matrix(0.13333333,0,0,-0.13333333,0,2666.6667)"/>
      <path id="path93" d="m 7379.71,9255.2 c 0,-42.3 -27.28,-76.6 -60.94,-76.6 -33.65,0 -60.93,34.3 -60.93,76.6 0,42.3 27.28,76.5 60.93,76.5 33.66,0 60.94,-34.2 60.94,-76.5" style="fill:#000000;fill-opacity:1;fill-rule:nonzero;stroke:none" transform="matrix(0.13333333,0,0,-0.13333333,0,2666.6667)"/>
      <path id="path94" d="m 6799.6,8664.9 c 20.61,-94 131.21,-155.1 253.68,-137.6 106.44,15.2 187.57,85 202.75,166 l -456.43,-28.4" style="fill:#fcfcfc;fill-opacity:1;fill-rule:nonzero;stroke:none" transform="matrix(0.13333333,0,0,-0.13333333,0,2666.6667)"/>
      <path id="path95" d="m 7113.23,10447.4 c 191.23,-383.5 -270.41,-521.3 -445.19,-728.8 -191.04,-226.9 -323.07,-674.8 -312.78,-973 28.07,-813.7 303.21,-1466 -233.38,-2210.7 111.24,452.3 -57.9,797.9 -198.9,1208.3 -155.08,451.5 -152.45,914.2 -98.93,1383.1 40.33,353.3 53.48,924.9 319.2,1191.7 152.57,153.2 848.15,373.8 969.98,129.4" style="fill:#0b0635;fill-opacity:1;fill-rule:nonzero;stroke:none" transform="matrix(0.13333333,0,0,-0.13333333,0,2666.6667)"/>
      <path id="path96" d="m 7069.04,10059.9 c 0,0 85.54,-150.4 277.07,-242.8 271.27,-131 329.38,-561.9 329.38,-561.9 l 110.12,60 -213.09,801.9 -503.48,-57.2" style="fill:#0b0635;fill-opacity:1;fill-rule:nonzero;stroke:none" transform="matrix(0.13333333,0,0,-0.13333333,0,2666.6667)"/>
      <path id="path97" d="m 8639.37,2518.4 -135.1,44.3 c 0,0 -16.77,23.8 1.83,54.4 18.6,30.7 62.86,29.7 84.43,27.5 21.56,-2.3 66.26,-19 66.26,-19 0,0 52.95,60.5 107.08,87.9 0,0 -14.11,74.3 10.99,122.7 0,0 -55.51,56.6 -49.45,140.1 0,0 -5.72,10.1 -14.12,25.6 -7.09,-3.2 -20.78,-9.5 -29.63,-14.5 -12.34,-7.1 -13.4,-47.3 -8.5,-71.5 4.89,-24.2 10.29,-100.8 2.62,-144.6 -7.67,-43.8 -41.13,-73.5 -91.05,-71.9 -49.91,1.7 -51.54,50.6 -61.23,94 -9.7,43.4 -5.54,84.1 -2.05,162.3 3.48,78.1 -16.82,117.2 -31.74,191 -14.93,73.8 -9.47,133 -9.47,133 6.58,61.6 31.05,136.1 37.61,155.2 -7.21,44.5 -6.62,86.3 7.53,117.5 25.41,55.9 -57.1,464 -57.1,464 l 417.14,-47.2 -38.84,-461.6 c 0,0 130.55,-273.4 173.75,-396.2 43.21,-122.9 74.67,-187.7 68.64,-248.7 0,0 -63.38,-245.6 -128.48,-299.8 -66.74,-55.6 -215.12,-153.2 -258.45,-156.5 -46.75,-3.6 -170.89,13 -170.89,13 0,0 -27.66,1.3 -48.27,12.6 0,0 -20,-0.3 -4.57,41.4 15.42,41.8 58.24,31.3 161.06,45" style="fill:#f8bd8c;fill-opacity:1;fill-rule:nonzero;stroke:none" transform="matrix(0.13333333,0,0,-0.13333333,0,2666.6667)"/>
      <path id="path98" d="m 8233.5,7536.7 c 0,0 583.72,41.8 789.32,-776.8 205.6,-818.7 183.95,-1125.6 173.12,-1647 -10.82,-521.5 597.26,-1550.9 45.31,-2214.4 0,0 -467.34,232.6 -900.2,321.1 0,0 -75.69,82.5 -32.38,943 43.21,860.3 -75.17,3374.1 -75.17,3374.1 v 0" style="fill:#fcfcfc;fill-opacity:1;fill-rule:nonzero;stroke:none" transform="matrix(0.13333333,0,0,-0.13333333,0,2666.6667)"/>
      <path id="path99" d="m 5700.15,2845.8 c 0,0 -173.35,-10.7 -207.05,-10.2 0,0 2.49,-241.8 103.53,-324.1 l 2.39,-2 101.13,336.3" style="fill:#eab186;fill-opacity:1;fill-rule:nonzero;stroke:none" transform="matrix(0.13333333,0,0,-0.13333333,0,2666.6667)"/>
      <path id="path100" d="m 5984.52,4578.3 c -10.12,0 -18.8,7.7 -19.87,17.9 -0.84,8.1 -20.08,200.4 23.57,401.2 22.36,102.9 7.06,162.2 -16.11,252.1 -20.57,79.8 -46.18,179.1 -56.64,347.3 -22.54,362 111.96,566.2 117.69,574.7 6.17,9.2 18.6,11.6 27.77,5.4 9.16,-6.2 11.58,-18.6 5.41,-27.7 -2.05,-3.1 -132.52,-203.4 -110.94,-550 10.22,-164.3 35.3,-261.6 55.45,-339.7 23.71,-92 40.83,-158.5 16.45,-270.6 -42.3,-194.6 -23.06,-386.6 -22.86,-388.5 1.14,-11 -6.84,-20.8 -17.83,-22 -0.7,-0.1 -1.4,-0.1 -2.09,-0.1" style="fill:#ccdde7;fill-opacity:1;fill-rule:nonzero;stroke:none" transform="matrix(0.13333333,0,0,-0.13333333,0,2666.6667)"/>
      <path id="path101" d="m 8249.84,4270.3 c -0.68,0 -1.38,0 -2.08,0.1 -10.99,1.1 -18.97,10.9 -17.83,21.9 16.35,157.9 28.7,300 14.19,440.3 -7.62,73.6 -16.72,147.4 -25.53,218.8 -19.55,158.6 -39.77,322.7 -44.04,489.2 -0.29,11 8.43,20.2 19.48,20.5 10.99,0.5 20.22,-8.5 20.51,-19.5 4.22,-164.6 23.42,-320.4 43.75,-485.3 8.83,-71.6 17.96,-145.6 25.61,-219.6 14.92,-144.1 2.4,-288.4 -14.19,-448.5 -1.06,-10.3 -9.75,-17.9 -19.87,-17.9" style="fill:#ccdde7;fill-opacity:1;fill-rule:nonzero;stroke:none" transform="matrix(0.13333333,0,0,-0.13333333,0,2666.6667)"/>
      <path id="path102" d="M 7291.66,4108.8 H 6085.31 c -11.05,0 -20,9 -20,20 0,11.1 8.95,20 20,20 h 1206.35 c 11.05,0 20,-8.9 20,-20 0,-11 -8.95,-20 -20,-20" style="fill:#dc4070;fill-opacity:1;fill-rule:nonzero;stroke:none" transform="matrix(0.13333333,0,0,-0.13333333,0,2666.6667)"/>
      <path id="path103" d="M 23771.6,10537.8 V 9643 h -992.2 v 894.8 h 992.2" style="fill:#f8bd8c;fill-opacity:1;fill-rule:nonzero;stroke:none" transform="matrix(0.13333333,0,0,-0.13333333,0,2666.6667)"/>
      <path id="path104" d="m 23771.6,10464.8 v -278.2 c -72.7,-73.5 -172,-131.8 -296.9,-143 -268.2,-24.1 -530.5,175.1 -695.3,329.3 v 92.3 c 0.8,-0.2 1.5,-0.5 2.3,-0.7 121,-36 305.9,-73.6 552.3,-73.3 178.1,0.2 314.5,33.9 412.9,73.3 l 24.7,0.3" style="fill:#eab186;fill-opacity:1;fill-rule:nonzero;stroke:none" transform="matrix(0.13333333,0,0,-0.13333333,0,2666.6667)"/>
      <path id="path105" d="m 22598.3,11301.3 c 12.4,-149.5 -46.1,-276.4 -130.5,-283.4 -84.4,-6.9 -162.8,108.6 -175.2,258.1 -12.3,149.5 46.1,276.4 130.6,283.3 84.4,7 162.8,-108.5 175.1,-258" style="fill:#f2b588;fill-opacity:1;fill-rule:nonzero;stroke:none" transform="matrix(0.13333333,0,0,-0.13333333,0,2666.6667)"/>
      <path id="path106" d="m 24230.1,11270.5 c -17.7,-149 -100.3,-261.6 -184.4,-251.6 -84.1,10.1 -137.9,138.9 -120.2,287.9 17.7,148.9 100.3,261.6 184.4,251.6 84.2,-10.1 138,-139 120.2,-287.9" style="fill:#f2b588;fill-opacity:1;fill-rule:nonzero;stroke:none" transform="matrix(0.13333333,0,0,-0.13333333,0,2666.6667)"/>
      <path id="path107" d="m 24075.1,11299.7 c 0,-593 -360.5,-1073.7 -805.2,-1073.7 -444.8,0 -805.3,480.7 -805.3,1073.7 0,593 360.5,1073.7 805.3,1073.7 444.7,0 805.2,-480.7 805.2,-1073.7" style="fill:#f8bd8c;fill-opacity:1;fill-rule:nonzero;stroke:none" transform="matrix(0.13333333,0,0,-0.13333333,0,2666.6667)"/>
      <path id="path108" d="m 23071.8,12876.7 c -24,0 -239.7,158.1 -517.7,-105.5 -278,-263.6 -214.1,-212.5 -290.8,-282.8 -76.7,-70.3 -57.5,-144.5 -159.8,-209.6 -102.2,-65.2 -121.4,-97.1 -76.7,-173.8 44.8,-76.7 76,-153.4 -22.7,-204.6 -98.7,-51.1 -137,-63.9 -85.9,-108.6 51.1,-44.7 8,-103.9 123,-123 115.1,-19.2 177.4,-31.5 196.5,-80.4 19.2,-49 62.4,-49 119.9,-68.2 57.5,-19.2 67.1,-28.8 86.3,-57.5 19.1,-28.8 39.8,-19.2 39.8,-19.2 0,0 116.2,283.6 122.1,405.4 5.8,121.9 44.2,-2.8 135.2,121.9 91.1,124.6 109.6,114.1 187,212.1 77.3,97.9 31.6,36.5 94.9,106.3 63.2,69.8 48.9,587.5 48.9,587.5" style="fill:#e2b897;fill-opacity:1;fill-rule:nonzero;stroke:none" transform="matrix(0.13333333,0,0,-0.13333333,0,2666.6667)"/>
      <path id="path109" d="m 23276.3,10978.5 c -9.3,0 -16,0.3 -18.4,0.4 -5.3,0.2 -9.4,4.7 -9.1,10 0.2,5.3 4.7,9.6 10,9.2 38,-1.8 104,2.2 119.2,20.5 14.6,17.5 7.6,118.3 -2.1,184.2 -0.8,5.2 2.9,10.1 8.1,10.9 5.3,0.7 10.1,-2.9 10.9,-8.1 4.1,-28 23.3,-168.8 -2.2,-199.3 -20.4,-24.5 -84,-27.8 -116.4,-27.8" style="fill:#080305;fill-opacity:1;fill-rule:nonzero;stroke:none" transform="matrix(0.13333333,0,0,-0.13333333,0,2666.6667)"/>
      <path id="path110" d="m 23009.5,10763 h 532 c 0,0 -169.3,-278.8 -430.7,-98.3 -9,6.2 -101.3,98.3 -101.3,98.3" style="fill:none;fill-opacity:1;fill-rule:nonzero;stroke:none" transform="matrix(0.13333333,0,0,-0.13333333,0,2666.6667)"/>
      <path id="path111" d="m 23079.5,11651.5 c -31.3,-3.3 -64,-5.8 -95.7,-8.4 -31.9,-2.7 -63.6,-5.2 -95,-8.6 -31.3,-3.3 -62.3,-7.3 -93,-11.7 -30.5,-4.9 -60.4,-10.6 -90.2,-16.7 l -1.9,-0.4 c -21.1,-4.3 -41.6,9.2 -45.9,30.2 -3.5,17.2 4.9,34.1 19.6,42.1 31.9,17.2 65.9,28.7 99.9,37.2 34.1,8.1 68.5,12.9 102.8,15.8 34.4,2.3 68.6,3 102.6,1.1 34.3,-1.9 67.6,-5.5 102.1,-13.2 18.4,-4.2 30,-22.4 25.8,-40.8 -3.3,-14.7 -15.5,-24.9 -29.6,-26.5 l -1.5,-0.1" style="fill:#080305;fill-opacity:1;fill-rule:nonzero;stroke:none" transform="matrix(0.13333333,0,0,-0.13333333,0,2666.6667)"/>
      <path id="path112" d="m 23460.5,11718.9 c 34.6,7.7 67.9,11.3 102.1,13.2 34.1,1.9 68.3,1.2 102.6,-1.1 34.3,-2.9 68.7,-7.7 102.8,-15.8 34.1,-8.5 68,-20 99.9,-37.2 18.9,-10.2 26,-33.8 15.8,-52.7 -8.3,-15.4 -25.6,-23 -42,-19.6 l -1.9,0.4 c -29.9,6.1 -59.7,11.8 -90.2,16.7 -30.7,4.4 -61.7,8.4 -93.1,11.7 -31.4,3.4 -63.1,5.9 -95,8.6 -31.7,2.6 -64.4,5.1 -95.6,8.4 l -1.5,0.1 c -18.7,2 -32.3,18.8 -30.3,37.6 1.6,14.9 12.6,26.5 26.4,29.7" style="fill:#080305;fill-opacity:1;fill-rule:nonzero;stroke:none" transform="matrix(0.13333333,0,0,-0.13333333,0,2666.6667)"/>
      <path id="path113" d="m 22931.2,11386.8 c 0,-48.1 -29.7,-87.1 -66.3,-87.1 -36.7,0 -66.3,39 -66.3,87.1 0,48.1 29.6,87.1 66.3,87.1 36.6,0 66.3,-39 66.3,-87.1" style="fill:#080305;fill-opacity:1;fill-rule:nonzero;stroke:none" transform="matrix(0.13333333,0,0,-0.13333333,0,2666.6667)"/>
      <path id="path114" d="m 23724.8,11386.8 c 0,-48.1 -29.7,-87.1 -66.3,-87.1 -36.6,0 -66.3,39 -66.3,87.1 0,48.1 29.7,87.1 66.3,87.1 36.6,0 66.3,-39 66.3,-87.1" style="fill:#080305;fill-opacity:1;fill-rule:nonzero;stroke:none" transform="matrix(0.13333333,0,0,-0.13333333,0,2666.6667)"/>
      <path id="path115" d="m 22935.4,12507.4 c 0,0 19.2,-376.4 373.9,-469.3 0,0 100.6,10.4 177.3,-134 76.7,-144.4 -4.8,-129 86.3,-175.4 91.1,-46.4 81.5,5.2 225.3,-56.7 143.8,-61.9 95.9,-104.4 201.3,-165.7 105.5,-61.2 311.6,-14.8 340.3,36.8 28.8,51.6 76.7,67 91.1,118.6 14.4,51.6 0,278.5 0,278.5 0,0 -172.6,123.7 -230.1,268.1 -57.5,144.4 19.2,206.3 -105.4,299.1 -124.6,92.9 -316.4,175.4 -354.7,216.6 -38.4,41.3 -86.3,247.6 -249.3,237.2 -162.9,-10.3 -364.3,5.9 -436.1,0.4 -72,-5.5 -110.3,-67.4 -119.9,-134.4 -9.6,-67.1 0,-319.8 0,-319.8" style="fill:#e2b897;fill-opacity:1;fill-rule:nonzero;stroke:none" transform="matrix(0.13333333,0,0,-0.13333333,0,2666.6667)"/>
      <path id="path116" d="m 25356.8,1637.8 h -1838.5 c -37.2,481 -69.8,973.1 -74.5,1266.2 -1,59 0,148.3 0,148.3 l -86.9,-1414.5 h -2088.6 c 1.6,397.5 22.7,882.2 79.5,1456.4 2.1,19.6 4,39.4 6.1,59.1 19.4,190.7 42.8,391.2 70.9,601.4 9.9,75.1 20.5,151.6 31.6,229.3 11.9,82.5 24.5,166.5 37.9,251.9 9.7,63.1 19.9,127 30.5,191.7 5,30.3 10.1,61 15.3,91.8 v 0.1 c 9,53.9 18.3,108.2 28,163.3 18.7,106.7 38.4,215.3 59.3,326 h 3401.2 c 0,0 14.6,-58.8 37.7,-164.8 8.1,-36.5 17,-78.5 26.7,-125.7 0.1,-0.3 0.2,-0.5 0.2,-0.8 1.8,-8.3 3.5,-16.8 5.2,-25.3 20.7,-100.6 44.3,-222.2 68.9,-360.9 19.2,-107.8 38.9,-225.9 58.2,-352.3 31.8,-208.5 62.6,-439.7 87.7,-685.2 4.1,-40.1 8.1,-80.7 11.9,-121.6 45.1,-484.7 66.4,-1017.1 31.7,-1534.4" style="fill:#ff7c90;fill-opacity:1;fill-rule:nonzero;stroke:none" transform="matrix(0.13333333,0,0,-0.13333333,0,2666.6667)"/>
      <path id="path117" d="m 24686.4,9603.6 c 0,0 744.4,-233.1 896.3,-369.1 151.9,-135.9 668.5,-1296.6 668.5,-1905.6 0,-609 121.5,-1544.1 0,-1720.1 -121.6,-176 -668.5,-1048.8 -1033.1,-1250.1 -364.7,-201.4 -514.1,-186.4 -514.1,-186.4 l -89.2,906.6 390.6,1434.1 -198.2,2161 -120.8,929.6" style="fill:#755faa;fill-opacity:1;fill-rule:nonzero;stroke:none" transform="matrix(0.13333333,0,0,-0.13333333,0,2666.6667)"/>
      <path id="path118" d="m 22360.1,9780.9 c 81.7,30.5 300.5,92.6 453.6,35.6 153,-57 521.6,-114 697.3,-35.6 175.8,78.4 402.5,88.8 561.3,55.1 158.7,-33.8 606.6,-126.4 867.4,-340.2 260.8,-213.9 419.4,-4247.9 178.5,-4590 -84.1,-119.5 -503.4,-526.7 -1167.2,-404.6 -530.4,97.6 -1131.8,-329.1 -1697.7,-38.6 -442,227 -794.6,229.4 -794.6,229.4 0,0 -532.9,3563.6 -238.1,4376.1 0,0 34,299.4 1139.5,712.8" style="fill:#755faa;fill-opacity:1;fill-rule:nonzero;stroke:none" transform="matrix(0.13333333,0,0,-0.13333333,0,2666.6667)"/>
      <path id="path119" d="m 23443.8,3032.3 c -0.2,0 -0.5,0 -0.7,0 -11,0.3 -19.7,9.6 -19.3,20.6 3.4,103.1 59.3,176.6 143.8,287.8 62.2,81.9 139.7,183.9 224.5,334.4 5.4,9.6 17.7,13 27.3,7.6 9.6,-5.4 13,-17.6 7.6,-27.3 -86.2,-152.9 -164.6,-256 -227.6,-338.9 -82.7,-108.9 -132.6,-174.6 -135.6,-264.9 -0.4,-10.8 -9.3,-19.3 -20,-19.3" style="fill:#1d1647;fill-opacity:1;fill-rule:nonzero;stroke:none" transform="matrix(0.13333333,0,0,-0.13333333,0,2666.6667)"/>
      <path id="path120" d="m 22374.2,9726 c 0,0 -607.5,-372 -869.6,-526.2 -262.1,-154.3 -433.4,-379.8 -493.9,-510.3 -60.4,-130.6 -201.5,-249.3 -191.5,-332.3 10.1,-83.1 -231.8,-439.1 -282.2,-735.8 -50.4,-296.7 -141.1,-1281.7 -141.1,-1317.3 0,-35.6 161.3,-854.5 161.3,-854.5 0,0 473.7,-569.6 574.5,-700.1 100.8,-130.6 403.1,-344.2 443.5,-344.2 40.3,0 292.2,201.8 282.2,403.5 -10.1,201.7 -80.7,783.3 -151.2,878.2 -55.2,74.2 -122.7,141.2 -173.6,240.7 -14.2,27.7 -27.1,57.9 -38.1,91.6 -50.4,154.3 90.7,522.1 90.7,522.1 0,0 453.6,1305.5 433.4,1483.5 -20.1,178 131.1,807 90.7,973.1 -40.3,166.2 264.9,728 264.9,728" style="fill:#755faa;fill-opacity:1;fill-rule:nonzero;stroke:none" transform="matrix(0.13333333,0,0,-0.13333333,0,2666.6667)"/>
      <path id="path121" d="m 22592.3,4348.7 c -354.4,0 -514.8,192.6 -521.7,201 -7,8.6 -5.6,21.2 2.9,28.2 8.6,6.9 21.2,5.6 28.2,-3 2.4,-2.9 166.9,-198 523.9,-185.6 309.1,10.7 465,48.2 590.2,78.2 25.9,6.3 50.3,12.1 75,17.5 225.9,49.7 539.1,108.5 650.6,46.6 9.7,-5.4 13.2,-17.6 7.8,-27.2 -5.4,-9.7 -17.5,-13.2 -27.2,-7.8 -111.2,61.7 -496.1,-22.8 -622.6,-50.6 -24.4,-5.4 -48.6,-11.2 -74.2,-17.3 -127,-30.5 -285,-68.5 -598.2,-79.4 -11.8,-0.4 -23.4,-0.6 -34.7,-0.6" style="fill:#1d1647;fill-opacity:1;fill-rule:nonzero;stroke:none" transform="matrix(0.13333333,0,0,-0.13333333,0,2666.6667)"/>
      <path id="path122" d="m 21585.2,6117.8 c -9.2,0 -17.5,6.5 -19.5,15.9 -45.6,215.5 -22.4,409.2 69,575.8 84.1,153.2 138.3,308.4 195.7,472.6 33.7,96.3 68.5,195.8 109.6,294 4.3,10.2 16,15 26.2,10.7 10.2,-4.2 15,-16 10.7,-26.1 -40.7,-97.1 -75.3,-196.1 -108.7,-291.8 -55.4,-158.6 -112.8,-322.5 -198.4,-478.7 -86.7,-157.9 -108.5,-342.4 -65,-548.2 2.3,-10.8 -4.6,-21.5 -15.4,-23.7 -1.4,-0.3 -2.8,-0.5 -4.2,-0.5" style="fill:#1d1647;fill-opacity:1;fill-rule:nonzero;stroke:none" transform="matrix(0.13333333,0,0,-0.13333333,0,2666.6667)"/>
      <path id="path123" d="m 23195.7,9719.2 c -152.1,0 -410.9,84.9 -422.6,88.8 -10.5,3.5 -16.2,14.8 -12.7,25.3 3.4,10.5 14.8,16.2 25.2,12.7 3,-1 302.6,-99.3 438.3,-85.5 76.6,7.8 128.1,5.9 162.1,4.6 21.9,-0.8 40.9,-1.5 46.2,1.9 9.3,6 21.6,3.3 27.6,-6 6,-9.3 3.3,-21.6 -6,-27.6 -15.8,-10.2 -36,-9.5 -69.3,-8.2 -32.9,1.2 -82.7,3 -156.5,-4.5 -10.1,-1.1 -20.9,-1.5 -32.3,-1.5" style="fill:#1d1647;fill-opacity:1;fill-rule:nonzero;stroke:none" transform="matrix(0.13333333,0,0,-0.13333333,0,2666.6667)"/>
      <path id="path124" d="m 28358,7961.6 c -171,-219.9 -439.8,-399 -724.9,-407.1 -27.1,-0.7 -73.5,-3.9 -135.4,-8.8 -453.5,-35.9 -1735.5,-170.5 -2301.9,-230.6 -169.1,-17.9 -274.4,-29.4 -274.9,-29.4 -67.9,-7.3 -119.2,240 -121.7,276.4 -8.5,126.1 36.4,248.5 97.5,356.7 62.1,110.2 197.9,238.3 147.8,376.8 -44.2,122.9 -214,148.6 -287.8,256.3 -53,77.7 -44.5,184.7 -2.7,268.8 61.6,124.4 176.7,228.7 301.3,286.1 107.3,49.4 199.6,107 247.8,207 10.7,22.2 19.3,46.4 25.4,73.3 33.4,150.5 2.9,340.1 105.5,472.3 85.5,109.9 293.2,226 488.7,445.9 30.8,34.7 62.3,67.2 94.3,97.8 7.1,6.8 14.4,13.6 21.8,20.2 164.9,151.3 340.8,244.9 488.7,254.6 183.2,12.3 488.6,-30.5 555.8,-207.7 67.2,-177.1 152.7,-152.7 262.7,-219.9 109.9,-67.2 360.4,-122.1 417.3,-505 32.3,-215.8 -0.2,-317.7 -1.2,-390.2 -0.5,-41.8 9.3,-73.8 47.9,-112.4 13.2,-13.5 30,-27.4 51.1,-43 187.4,-138.6 382.8,-252.4 496.9,-431.8 113.9,-179.1 171.1,-586.4 0,-806.3" style="fill:#231347;fill-opacity:1;fill-rule:nonzero;stroke:none" transform="matrix(0.13333333,0,0,-0.13333333,0,2666.6667)"/>
      <path id="path125" d="m 28358,7961.6 c -171,-219.9 -439.8,-399 -725,-407 -27.1,-0.8 -73.5,-4 -135.3,-8.8 15.9,90.4 29.5,197.4 21.7,269.2 -15.6,146.6 -24.9,81.6 -57.4,179.4 -32.5,97.7 65.2,252.4 56.9,366.5 -8,113.8 -138.3,187.1 -195.4,390.9 -57,203.6 67,331.3 67,331.3 l 371.6,272 c -0.5,-41.8 9.2,-73.8 47.8,-112.4 13.2,-13.4 30.1,-27.4 51.1,-43 187.4,-138.5 382.9,-252.4 497,-431.8 113.9,-179.1 171,-586.4 0,-806.3" style="fill:#31185e;fill-opacity:1;fill-rule:nonzero;stroke:none" transform="matrix(0.13333333,0,0,-0.13333333,0,2666.6667)"/>
      <path id="path126" d="m 26978.3,7665.6 c -69.5,-30.5 -151.4,-58.9 -242.5,-77.2 h -429.4 c -63,12.9 -128,32.2 -194.6,59.6 l 5.1,231.9 34.9,549.1 2.8,43.5 6.3,99.2 717.7,-19.3 11.9,-93.6 23.2,-183.2 50.8,-399.7 13.8,-210.3" style="fill:#f8bd8c;fill-opacity:1;fill-rule:nonzero;stroke:none" transform="matrix(0.13333333,0,0,-0.13333333,0,2666.6667)"/>
      <path id="path127" d="m 27404.2,9119.9 c -24.3,-92.7 -108.5,-150.9 -187.9,-130 -79.4,20.9 -124.1,112.9 -99.7,205.6 24.3,92.7 108.4,150.9 187.9,130 79.4,-20.9 124.1,-112.9 99.7,-205.6" style="fill:#f8bd8c;fill-opacity:1;fill-rule:nonzero;stroke:none" transform="matrix(0.13333333,0,0,-0.13333333,0,2666.6667)"/>
      <path id="path128" d="m 28299.8,7442.1 -144.2,-3370.8 -1064.3,-33.5 -2044.9,-64.5 -162.9,3524 1233.4,382.6 c 0,0 293.7,-220.2 847.6,-4 13.3,5.3 71.7,-5.8 157.5,-27.1 133.4,-33 332.8,-90.7 529.9,-150 89.6,-65.3 179.7,-129.6 358.5,-148.8 87.5,-9.4 190.3,-50.3 289.4,-107.9" style="fill:none;fill-opacity:1;fill-rule:nonzero;stroke:none" transform="matrix(0.13333333,0,0,-0.13333333,0,2666.6667)"/>
      <path id="path129" d="m 25881.9,8891.1 c 0,0 65.2,-331.4 -53,-543.2 -118,-211.9 -166.9,-224.1 -118,-417.3 48.8,-193.6 59.3,-149.6 48.8,-262.5 -5.3,-60.6 -292.7,-224.5 -563.9,-353 -169.1,-17.9 -274.4,-29.4 -274.9,-29.4 -67.9,-7.3 -119.2,240 -121.7,276.4 -8.5,126.1 36.4,248.5 97.5,356.7 62.1,110.2 197.9,238.3 147.8,376.8 -44.2,122.9 -214,148.6 -287.8,256.3 -53,77.7 -44.5,184.7 -2.7,268.8 61.6,124.4 176.7,228.7 301.3,286.1 107.3,49.4 199.6,107 247.8,207 10.7,22.2 19.3,46.4 25.4,73.3 33.4,150.5 2.9,340.1 105.5,472.3 85.5,109.9 293.2,226 488.7,445.9 30.8,34.7 62.3,67.2 94.3,97.8 7.1,6.8 14.4,13.6 21.8,20.2 l 69.6,-777.2 -226.5,-755" style="fill:#31185e;fill-opacity:1;fill-rule:nonzero;stroke:none" transform="matrix(0.13333333,0,0,-0.13333333,0,2666.6667)"/>
      <path id="path130" d="m 27209.5,9264.9 c 0,-526.3 -300.8,-953 -671.9,-953 -371.1,0 -708.6,402.2 -708.6,928.5 0,526.3 337.5,977.4 708.6,977.4 371.1,0 671.9,-426.6 671.9,-952.9" style="fill:#f8bd8c;fill-opacity:1;fill-rule:nonzero;stroke:none" transform="matrix(0.13333333,0,0,-0.13333333,0,2666.6667)"/>
      <path id="path131" d="m 26263.9,9519.2 c -17.7,5.6 -41.4,10.8 -62.9,14.5 -22,3.7 -44.4,6.5 -66.9,8 -44.9,3.2 -90,1.7 -134.5,-4 l -0.7,-0.1 c -25.4,-3.3 -48.6,14.7 -51.9,40.1 -3.2,24.8 13.9,47.5 38.3,51.7 50.9,8.5 102.5,12 153.8,10.2 25.7,-0.8 51.4,-3 77,-6.4 26.1,-3.6 49.9,-7.6 78.5,-15.4 27.5,-7.4 43.8,-35.8 36.3,-63.4 -7.5,-27.5 -35.9,-43.8 -63.4,-36.3 -0.6,0.2 -1.1,0.3 -1.7,0.5 l -1.9,0.6" style="fill:#000000;fill-opacity:1;fill-rule:nonzero;stroke:none" transform="matrix(0.13333333,0,0,-0.13333333,0,2666.6667)"/>
      <path id="path132" d="m 26684,9612.7 c 28.8,7.1 52.7,10.4 78.9,13.4 25.7,2.7 51.4,4.4 77.1,4.5 51.4,0.5 102.8,-4.3 153.5,-14.1 25.1,-4.8 41.6,-29.2 36.7,-54.3 -4.7,-24.6 -28,-40.8 -52.5,-37.1 l -0.8,0.2 c -44.3,6.8 -89.4,9.4 -134.4,7.3 -22.5,-0.9 -44.9,-3.2 -67,-6.4 -21.6,-3 -45.4,-7.7 -63.2,-12.8 l -1.8,-0.5 c -27.4,-7.9 -56,8 -63.8,35.4 -7.9,27.5 8,56.1 35.4,63.9 0.6,0.2 1.4,0.4 1.9,0.5" style="fill:#000000;fill-opacity:1;fill-rule:nonzero;stroke:none" transform="matrix(0.13333333,0,0,-0.13333333,0,2666.6667)"/>
      <path id="path133" d="m 26224,9367.4 c 0,-39.7 -28.3,-72 -63.2,-72 -34.8,0 -63.1,32.3 -63.1,72 0,39.8 28.3,72.1 63.1,72.1 34.9,0 63.2,-32.3 63.2,-72.1" style="fill:#000000;fill-opacity:1;fill-rule:nonzero;stroke:none" transform="matrix(0.13333333,0,0,-0.13333333,0,2666.6667)"/>
      <path id="path134" d="m 26878.6,9355.2 c 0,-39.8 -28.2,-72 -63.1,-72 -34.9,0 -63.2,32.2 -63.2,72 0,39.8 28.3,72 63.2,72 34.9,0 63.1,-32.2 63.1,-72" style="fill:#000000;fill-opacity:1;fill-rule:nonzero;stroke:none" transform="matrix(0.13333333,0,0,-0.13333333,0,2666.6667)"/>
      <path id="path135" d="m 25992.4,9240.5 c 51.2,-81 33.2,-184.3 -40.4,-230.9 -73.5,-46.5 -174.6,-18.5 -225.9,62.4 -51.2,81 -33.1,184.4 40.4,230.9 73.5,46.5 174.7,18.6 225.9,-62.4" style="fill:#f8bd8c;fill-opacity:1;fill-rule:nonzero;stroke:none" transform="matrix(0.13333333,0,0,-0.13333333,0,2666.6667)"/>
      <path id="path136" d="m 27809.9,9242.7 c -107.2,-93.8 -236,-205 -250.2,-226.3 -24.4,-36.6 -241.1,-41.1 -205.5,15.4 11.8,18.6 58.9,296.2 -106,271.7 -164.9,-24.4 -177.2,73.3 -219.7,140.5 -42.5,67.2 -6.3,244.4 -0.2,307.7 6.1,63 -85.5,156.6 -201.6,113.8 -116.1,-42.7 -354.3,-146.6 -421.5,-103.8 -67.2,42.7 -12.2,177.1 -207.7,146.6 -195.4,-30.5 -201.6,226 -201.6,226 l 21.1,268.8 c 171.2,163.2 356,264.6 510.4,274.9 183.2,12.2 488.7,-30.6 555.9,-207.7 67.2,-177.2 152.7,-152.7 262.6,-219.9 110,-67.2 360.4,-122.2 417.4,-505.1 50.8,-339.6 -59.2,-397 46.6,-502.6" style="fill:#31185e;fill-opacity:1;fill-rule:nonzero;stroke:none" transform="matrix(0.13333333,0,0,-0.13333333,0,2666.6667)"/>
      <path id="path137" d="M 28292.9,1637.8 H 25081 c 13.4,493.4 127.8,1067.7 244.1,1534.4 11.6,46.7 23.3,92.4 34.8,136.6 81,310.4 158,558.8 197.2,680.7 17,52.7 26.8,81.7 26.8,81.7 l 433.4,23.3 123.5,6.7 967.5,51.8 613.6,32.9 c 0,0 2.5,-47.5 11.5,-127.9 18.6,-167.6 65.2,-478.1 175.7,-797.2 38.9,-113 86,-227.2 142.7,-336.4 159.2,-307 219.4,-852.3 241.1,-1286.6" style="fill:#e2b897;fill-opacity:1;fill-rule:nonzero;stroke:none" transform="matrix(0.13333333,0,0,-0.13333333,0,2666.6667)"/>
      <path id="path138" d="m 25984.3,7885.9 c 10.6,2 20.1,-6.7 19,-17.5 -15.4,-159.6 -113.3,-1159.1 -135.8,-1204.1 -24.4,-48.9 -48.9,-252.5 -57,-415.4 -8.2,-162.9 -8.2,-219.9 0,-447.9 8.1,-228.1 32.6,-472.4 57,-627.2 24.4,-154.7 126.2,-702.5 132.3,-855.2 6.1,-152.7 12.3,-220.8 42.8,-354.8 30.5,-133.9 79.4,-262.1 67.2,-353.8 -12.2,-91.6 -1276.7,-464.2 -1276.7,-464.2 0,0 -128.3,85.5 -146.6,219.9 -18.3,134.4 -103.8,201.6 -122.2,342.1 -18.3,140.5 -65.1,964.9 32.6,1362.1 97.7,397.1 -268.8,690.3 -252.5,755.5 16.3,65.2 12.2,1211.5 128.3,1321.5 116.1,109.9 407.6,378.7 635.3,403.1 227.7,24.5 311.5,122.2 433.7,201.6 103.8,67.5 366.2,120.1 442.6,134.3" style="fill:#c5a2fd;fill-opacity:1;fill-rule:nonzero;stroke:none" transform="matrix(0.13333333,0,0,-0.13333333,0,2666.6667)"/>
      <path id="path139" d="m 25639.5,5778.6 c -6.3,0 -12.5,3 -16.4,8.6 -34.9,50.4 -20.9,90 -6.1,131.9 16.6,46.7 35.3,99.7 3.5,195 -28.5,85.7 -73.1,153.2 -116.2,218.4 -49.7,75.3 -96.7,146.4 -108.5,233 -10.2,75.2 18.2,180.3 45.6,282 29.5,108.9 59.9,221.6 33.6,271 -26.8,50.1 -88.2,98.4 -147.5,145.1 -59.2,46.6 -115.1,90.6 -135.1,136 -12.6,28.3 -10.6,82.2 149.8,222 83.8,73 173.2,136.5 174.1,137.1 9,6.4 21.5,4.3 27.9,-4.8 6.4,-9 4.3,-21.4 -4.8,-27.8 -164.6,-116.6 -328.7,-269 -310.5,-310.3 16.1,-36.3 68.2,-77.3 123.3,-120.8 62.6,-49.2 127.3,-100.2 158,-157.7 33.8,-63.4 2.7,-178.4 -30.2,-300.2 -26.4,-97.9 -53.7,-199 -44.6,-266.2 10.6,-77.6 53.1,-141.9 102.3,-216.3 42.4,-64.3 90.6,-137.2 120.8,-227.9 36.1,-108.2 13.1,-173.4 -3.8,-220.9 -13.7,-38.8 -22,-62.3 1.3,-95.8 6.2,-9.1 4,-21.6 -5.1,-27.8 -3.5,-2.4 -7.4,-3.6 -11.4,-3.6" style="fill:#9e4aff;fill-opacity:1;fill-rule:nonzero;stroke:none" transform="matrix(0.13333333,0,0,-0.13333333,0,2666.6667)"/>
      <path id="path140" d="m 24472.7,7134.5 c -32.6,-69 -442.1,-489.3 -484,-795.4 -41.8,-306.1 -188.5,-420.9 -176.2,-803.5 12.2,-382.7 -36.7,-510.2 134.4,-701.5 171,-191.3 171,-357.1 293.2,-599.5 122.1,-242.3 -11.2,-357.1 232.6,-510.2 243.8,-153 341.6,663.3 524.8,816.3 183.3,153.1 73.3,131 0,384.4 -73.3,253.4 -378.7,495.7 -390.9,585 -12.2,89.3 77.3,203 97.7,273.4 16.4,56.8 171.1,1383.9 195.5,1550.5 24.4,166.6 -128.9,61.1 -128.9,61.1 l -298.2,-260.6" style="fill:#c5a2fd;fill-opacity:1;fill-rule:nonzero;stroke:none" transform="matrix(0.13333333,0,0,-0.13333333,0,2666.6667)"/>
      <path id="path141" d="m 25052.1,4809.3 h 0.2 z m -246.7,-681.8 c -2.5,0 -5.1,0.4 -7.6,1.5 -10.2,4.1 -15.1,15.8 -10.9,26 90.1,221.1 110,245.9 143,287.1 12.4,15.5 26.5,33.1 47.7,66.2 33.5,52.1 55.3,76.3 69.8,92.2 18.2,20 23,25.4 30.2,65.1 10.5,58.6 -40.5,106.5 -53,117.2 -11.4,4.7 -15.4,22.7 -44.2,177.3 -23.5,126.1 -124.1,344.5 -244.8,409.6 -58.9,31.7 -126.7,77.7 -127.6,152 -0.5,40.3 13.9,77 27.7,112.6 l 3.5,9 c 70.5,182.5 101.2,379.5 122,548.1 8.7,70 10.7,141.3 12.7,210.3 1.9,68.5 3.9,139.4 12.4,209.7 1.3,11 11.3,18.8 22.2,17.5 11,-1.4 18.8,-11.3 17.5,-22.3 -8.3,-68.5 -10.2,-138.4 -12.2,-206.1 -1.9,-69.9 -4,-142.2 -12.9,-214 -21.1,-171 -52.4,-371 -124.4,-557.6 l -3.5,-9.1 c -13,-33.5 -25.4,-65.1 -25,-97.6 0.7,-53.1 54.2,-89.1 106.5,-117.3 133.3,-71.8 239.7,-300.2 265.2,-437.5 20.8,-111.4 28.7,-144.8 31.4,-154.5 18,-15.6 80,-75.6 65.8,-154.4 -8.8,-49 -18,-60.8 -39.8,-84.8 -14.4,-15.9 -34.2,-37.7 -65.8,-87 -22.3,-34.8 -37.1,-53.3 -50.2,-69.6 -30.7,-38.4 -49.2,-61.5 -137.2,-277.2 -3.2,-7.7 -10.6,-12.4 -18.5,-12.4" style="fill:#9e4aff;fill-opacity:1;fill-rule:nonzero;stroke:none" transform="matrix(0.13333333,0,0,-0.13333333,0,2666.6667)"/>
      <path id="path142" d="m 26140.8,4081.1 c -10.6,0 -19.4,8.3 -20,19 -0.6,11 7.9,20.4 18.9,21 l 1150.8,62.4 c 10.8,0.6 20.5,-7.8 21.1,-18.9 0.6,-11 -7.9,-20.4 -18.9,-21 l -1150.8,-62.4 c -0.4,0 -0.8,-0.1 -1.1,-0.1" style="fill:#b08174;fill-opacity:1;fill-rule:nonzero;stroke:none" transform="matrix(0.13333333,0,0,-0.13333333,0,2666.6667)"/>
      <path id="path143" d="m 28521.4,5069.9 c 97.7,-397.2 50.9,-1221.6 32.6,-1362.1 -18.3,-140.5 -103.9,-207.7 -122.2,-342.1 -14.9,-109.2 -102.3,-186.1 -134.6,-211.1 -7.3,-5.7 -16.8,-7.4 -25.6,-4.8 -136.7,40.6 -1251.6,374.2 -1263.1,460.2 -12.2,91.7 36.7,220 67.2,353.9 6,26.9 11.3,51.1 15.6,73.9 17.4,90.7 22.3,158.8 27.2,280.8 6.1,152.7 107.8,700.4 132.3,855.2 24.4,154.8 48.8,399.1 57.1,627.1 8.1,228.1 8.1,285.2 0,448 -8.3,162.9 -32.7,366.5 -57.1,415.4 -21.9,43.6 -110.3,979.9 -128.9,1178.8 -0.2,1.9 -0.2,3.8 0.1,5.7 1.6,16.1 16.6,28.1 33.3,25.2 90.5,-15.1 323.9,-59 421.3,-122.4 26.2,-17.1 50.7,-35 75.3,-52.8 89.6,-65.3 179.7,-129.6 358.5,-148.8 87.5,-9.4 190.3,-50.3 289.4,-107.9 148.9,-86.5 289.8,-210.6 359.9,-322.3 131.3,-208.8 81.4,-509 91.8,-742.7 7.6,-173.2 -19.8,-382.7 22.4,-551.7 16.2,-65.2 -350.2,-358.3 -252.5,-755.5" style="fill:#c5a2fd;fill-opacity:1;fill-rule:nonzero;stroke:none" transform="matrix(0.13333333,0,0,-0.13333333,0,2666.6667)"/>
      <path id="path144" d="m 27412,5763.5 c -4,0 -7.9,1.1 -11.4,3.5 -9.1,6.3 -11.4,18.8 -5.1,27.9 23.3,33.5 15,56.9 1.2,95.7 -16.8,47.6 -39.8,112.7 -3.7,221 30.2,90.7 78.4,163.6 120.8,227.9 49.2,74.4 91.7,138.7 102.2,216.3 9.2,67.2 -18.1,168.3 -44.6,266.1 -32.9,121.8 -63.9,236.9 -30.2,300.2 30.7,57.6 95.5,108.6 158,157.8 55.2,43.4 107.3,84.5 123.3,120.8 19.2,43.3 -128.6,203.1 -276.4,326.3 -8.5,7.1 -9.6,19.7 -2.6,28.2 7.1,8.5 19.7,9.6 28.2,2.6 77.5,-64.7 327.5,-282.6 287.4,-373.3 -20,-45.4 -75.9,-89.4 -135.1,-136 -59.4,-46.7 -120.7,-95 -147.5,-145.2 -26.3,-49.4 4.1,-162 33.6,-270.9 27.4,-101.7 55.8,-206.8 45.6,-282.1 -11.8,-86.6 -58.8,-157.6 -108.5,-232.9 -43.1,-65.3 -87.7,-132.8 -116.3,-218.4 -31.7,-95.3 -13,-148.3 3.6,-195 14.8,-42 28.8,-81.6 -6.1,-131.9 -3.9,-5.6 -10.1,-8.6 -16.4,-8.6" style="fill:#9e4aff;fill-opacity:1;fill-rule:nonzero;stroke:none" transform="matrix(0.13333333,0,0,-0.13333333,0,2666.6667)"/>
      <path id="path145" d="m 28640.8,7134.5 c 32.6,-69 442.1,-489.3 484,-795.4 41.8,-306.1 188.4,-420.9 176.2,-803.5 -12.2,-382.7 36.7,-510.2 -134.4,-701.5 -171,-191.3 -171,-357.1 -293.2,-599.5 -122.1,-242.3 11.2,-357.1 -232.6,-510.2 -243.8,-153 -341.6,663.3 -524.8,816.3 -183.3,153.1 -73.3,131 0,384.4 73.3,253.4 378.7,495.7 390.9,585 12.2,89.3 -77.4,203 -97.7,273.4 -16.5,56.8 -171.1,1383.9 -195.5,1550.5 -24.4,166.6 128.9,61.1 128.9,61.1 l 298.2,-260.6" style="fill:#c5a2fd;fill-opacity:1;fill-rule:nonzero;stroke:none" transform="matrix(0.13333333,0,0,-0.13333333,0,2666.6667)"/>
      <path id="path146" d="m 28015.7,3897.2 c -7.3,0 -14.3,4 -17.9,10.9 -0.3,0.7 -36.9,71.4 -120.8,148.4 -13.8,12.7 -27.4,24.2 -40.7,35.4 -70.8,59.8 -131.9,111.4 -109.7,255.9 12.6,82 38.1,118.7 65.1,157.6 27.7,39.9 56.4,81.2 79.3,181.7 46.2,202.6 344.9,987.6 357.6,1020.9 3.9,10.3 15.5,15.5 25.8,11.6 10.3,-4 15.5,-15.5 11.5,-25.9 -3,-8.1 -310.3,-815.6 -355.9,-1015.4 -24.6,-108.1 -56.9,-154.6 -85.4,-195.7 -25.4,-36.5 -47.3,-68 -58.5,-140.9 -18.8,-122.3 26.9,-160.9 96,-219.3 13.6,-11.4 27.5,-23.2 41.9,-36.4 89.6,-82.3 127.9,-156.6 129.5,-159.8 5,-9.8 1.1,-21.9 -8.8,-26.9 -2.9,-1.4 -6,-2.1 -9,-2.1" style="fill:#9e4aff;fill-opacity:1;fill-rule:nonzero;stroke:none" transform="matrix(0.13333333,0,0,-0.13333333,0,2666.6667)"/>
      <path id="path147" d="m 26596.2,1708.4 c -11.1,0 -20,8.9 -20,20 v 1185.8 l -258.8,216.2 c -8.5,7.1 -9.6,19.7 -2.5,28.2 7.1,8.5 19.7,9.6 28.2,2.5 l 265.9,-222.3 c 4.5,-3.8 7.2,-9.4 7.2,-15.3 V 1728.4 c 0,-11.1 -9,-20 -20,-20" style="fill:#b08174;fill-opacity:1;fill-rule:nonzero;stroke:none" transform="matrix(0.13333333,0,0,-0.13333333,0,2666.6667)"/>
      <path id="path148" d="m 26913.7,8275.6 c -52.3,-71.2 -130.9,-132.2 -234.4,-142.4 -211.2,-20.8 -417.4,175.2 -527.5,295.8 l 2.8,43.5 c 11,-4.6 23.4,-9.3 37.8,-13.9 85,-27.9 214.9,-56.9 388,-56.8 125.2,0.2 220.9,26.3 290.1,56.8 l 20,0.2 23.2,-183.2" style="fill:#eab186;fill-opacity:1;fill-rule:nonzero;stroke:none" transform="matrix(0.13333333,0,0,-0.13333333,0,2666.6667)"/>
      <path id="path149" d="m 26510.1,9068.2 h -54.8 c -5.1,0 -9.2,4.2 -9.2,9.2 V 9283 c 0,5.1 4.1,9.2 9.2,9.2 5,0 9.1,-4.1 9.1,-9.2 v -196.5 h 45.7 c 5.1,0 9.1,-4.1 9.1,-9.1 0,-5 -4,-9.2 -9.1,-9.2" style="fill:#000000;fill-opacity:1;fill-rule:nonzero;stroke:none" transform="matrix(0.13333333,0,0,-0.13333333,0,2666.6667)"/>
      <path id="path150" d="m 26474.6,8722.9 c -41.7,0 -85.1,7.5 -127.5,23.1 -5.2,1.9 -7.9,7.6 -6,12.8 1.9,5.2 7.6,7.9 12.8,5.9 125.8,-46.1 259.9,-17.6 326.1,69.4 3.4,4.3 9.7,5.2 14.1,1.9 4.3,-3.4 5.2,-9.7 1.9,-14.1 -48.9,-64.1 -131.3,-99 -221.4,-99" style="fill:#1a1a1a;fill-opacity:1;fill-rule:nonzero;stroke:none" transform="matrix(0.13333333,0,0,-0.13333333,0,2666.6667)"/>
      <path id="path151" d="m 25829,9037 c 0,-8.1 -6.6,-14.7 -14.7,-14.7 -8,0 -14.6,6.6 -14.6,14.7 0,8 6.6,14.6 14.6,14.6 8.1,0 14.7,-6.6 14.7,-14.6" style="fill:#000000;fill-opacity:1;fill-rule:nonzero;stroke:none" transform="matrix(0.13333333,0,0,-0.13333333,0,2666.6667)"/>
      <path id="path152" d="m 27244.7,9032 c 0,-8.1 -6.5,-14.7 -14.6,-14.7 -8.1,0 -14.7,6.6 -14.7,14.7 0,8 6.6,14.6 14.7,14.6 8.1,0 14.6,-6.6 14.6,-14.6" style="fill:#000000;fill-opacity:1;fill-rule:nonzero;stroke:none" transform="matrix(0.13333333,0,0,-0.13333333,0,2666.6667)"/>
      <path id="path153" d="m 25771,9079.2 c 0,-6 -4.9,-11 -11,-11 -6,0 -10.9,5 -10.9,11 0,6.1 4.9,11 10.9,11 6.1,0 11,-4.9 11,-11" style="fill:#000000;fill-opacity:1;fill-rule:nonzero;stroke:none" transform="matrix(0.13333333,0,0,-0.13333333,0,2666.6667)"/>
      <path id="path154" d="m 21380.1,8110.9 -345.6,-411.3 -109.9,-130.7 -975.8,-1161.5 57.4,1619.4 c 133.3,8.2 237.1,118.6 237.1,252.1 v 544 l 693,-25.3 c 9.3,-62.3 18.8,-124.8 28.1,-187.2 1.6,-10.6 3.2,-21.2 4.8,-31.8 0.3,-1.5 0.4,-3 0.7,-4.6 5.4,-35.8 8.6,-78.1 12.7,-122.4 0.7,-9.1 1.5,-18.2 2.5,-27.4 16,-160 50.5,-334.6 239.4,-322.8 l 155.6,9.5" style="fill:#f8bd8c;fill-opacity:1;fill-rule:nonzero;stroke:none" transform="matrix(0.13333333,0,0,-0.13333333,0,2666.6667)"/>
      <path id="path155" d="m 20982.6,8451.6 c -46.6,-81.4 -122.8,-155.8 -226.9,-167.2 -198.9,-21.7 -392.8,192.5 -488.5,311 -10.2,12.6 -17.6,24.2 -23.9,34.2 v 13.8 c 16.3,-9.3 39,-21.4 72.9,-33.6 76.7,-28 194,-56.9 350.1,-56.7 113.1,0.1 199.5,26.2 261.9,56.7 l 36.2,0.6 c 1.6,-10.6 3.2,-21.2 4.8,-31.8 0.3,-1.5 0.4,-3 0.7,-4.6 5.4,-35.8 8.6,-78.1 12.7,-122.4" style="fill:#eab186;fill-opacity:1;fill-rule:nonzero;stroke:none" transform="matrix(0.13333333,0,0,-0.13333333,0,2666.6667)"/>
      <path id="path156" d="m 21293,8960.5 c 0,0 827.2,89.6 490.5,1124.9 -336.6,1035.2 -1371.8,791.1 -1371.8,791.1 0,0 -765.9,-312.1 -858.5,-968.2 -92.6,-656.2 462.7,-836.2 462.7,-836.2 L 21293,8960.5" style="fill:#000000;fill-opacity:1;fill-rule:nonzero;stroke:none" transform="matrix(0.13333333,0,0,-0.13333333,0,2666.6667)"/>
      <path id="path157" d="m 20932.2,10823.4 c 0,0 237.4,398.9 146,499 -91.5,100 -206.6,216.3 -437.9,174.7 -231.3,-41.5 -280.4,-270.7 -258.2,-347.3 22.2,-76.6 79.2,-229 154.5,-352.7 75.3,-123.7 395.6,26.3 395.6,26.3" style="fill:#000000;fill-opacity:1;fill-rule:nonzero;stroke:none" transform="matrix(0.13333333,0,0,-0.13333333,0,2666.6667)"/>
      <path id="path158" d="m 19996.1,9422.8 c -47.4,-496.7 222.9,-928.8 603.6,-965 380.7,-36.3 727.7,336.9 775,833.6 47.4,496.8 -222.9,928.8 -603.6,965.1 -380.7,36.3 -727.7,-337 -775,-833.7" style="fill:#f8bd8c;fill-opacity:1;fill-rule:nonzero;stroke:none" transform="matrix(0.13333333,0,0,-0.13333333,0,2666.6667)"/>
      <path id="path159" d="m 20571.6,10379.9 c 0,0 286.1,-576.5 841.6,-887.9 555.5,-311.4 54.7,791.1 54.7,791.1 l -896.3,96.8" style="fill:#000000;fill-opacity:1;fill-rule:nonzero;stroke:none" transform="matrix(0.13333333,0,0,-0.13333333,0,2666.6667)"/>
      <path id="path160" d="m 19785.5,9478 c 0,-113.4 98.4,-222.9 179.5,-222.9 81.2,0 147,91.9 147,205.3 0,113.4 -107.8,205.3 -189,205.3 -81.1,0 -137.5,-74.3 -137.5,-187.7" style="fill:#f8bd8c;fill-opacity:1;fill-rule:nonzero;stroke:none" transform="matrix(0.13333333,0,0,-0.13333333,0,2666.6667)"/>
      <path id="path161" d="m 21514.4,9420.4 c 0,-113.4 -98.3,-222.9 -179.5,-222.9 -81.1,0 -146.9,92 -146.9,205.4 0,113.3 107.8,205.3 188.9,205.3 81.2,0 137.5,-74.4 137.5,-187.8" style="fill:#f8bd8c;fill-opacity:1;fill-rule:nonzero;stroke:none" transform="matrix(0.13333333,0,0,-0.13333333,0,2666.6667)"/>
      <path id="path162" d="m 20337.9,9499.5 c 0,-43.9 27.2,-79.4 60.7,-79.4 33.5,0 60.7,35.5 60.7,79.4 0,43.9 -27.2,79.4 -60.7,79.4 -33.5,0 -60.7,-35.5 -60.7,-79.4" style="fill:#000000;fill-opacity:1;fill-rule:nonzero;stroke:none" transform="matrix(0.13333333,0,0,-0.13333333,0,2666.6667)"/>
      <path id="path163" d="m 20953,9460.4 c 0,-43.9 27.2,-79.4 60.8,-79.4 33.5,0 60.7,35.5 60.7,79.4 0,43.9 -27.2,79.5 -60.7,79.5 -33.6,0 -60.8,-35.6 -60.8,-79.5" style="fill:#000000;fill-opacity:1;fill-rule:nonzero;stroke:none" transform="matrix(0.13333333,0,0,-0.13333333,0,2666.6667)"/>
      <path id="path164" d="m 20500,9683.3 c -5,-0.5 -10.1,-0.5 -15.1,0.3 -135.8,20.1 -219,-21.5 -222.5,-23.3 -22.7,-11.7 -52.2,-6.7 -65.6,11.2 -13.5,17.9 -6.3,41.8 16.2,53.8 4.8,2.5 117.7,61 293.3,35.2 25.8,-3.8 42,-24.2 36.1,-45.4 -4.8,-17 -22.3,-29.5 -42.4,-31.8" style="fill:#000000;fill-opacity:1;fill-rule:nonzero;stroke:none" transform="matrix(0.13333333,0,0,-0.13333333,0,2666.6667)"/>
      <path id="path165" d="m 21191.6,9641.2 c -4.8,1 -9.7,2.6 -14.3,4.9 -123.2,60.5 -215.1,46.3 -218.9,45.6 -25.2,-4.2 -51.8,9.5 -59.1,30.7 -7.3,21.1 6.8,41.8 31.9,46.3 5.3,0.9 130.7,22.2 290,-55.9 23.4,-11.6 32.6,-35.8 20.5,-54.2 -9.7,-14.8 -30.2,-21.3 -50.1,-17.4" style="fill:#000000;fill-opacity:1;fill-rule:nonzero;stroke:none" transform="matrix(0.13333333,0,0,-0.13333333,0,2666.6667)"/>
      <path id="path166" d="m 20705.7,9182.3 c -10.5,0 -20.7,3.2 -29,9.4 -25.7,18.8 -27,32 -24,62.4 l 12.4,127.7 c 0.5,4.8 4.8,8.2 9.5,7.8 4.8,-0.5 8.3,-4.7 7.8,-9.5 l -12.5,-127.7 c -2.6,-27.2 -1.6,-33.1 17,-46.8 7.2,-5.2 16.5,-7.2 25.6,-5.3 l 32.4,6.8 c 4.7,1 9.3,-2.1 10.3,-6.7 1,-4.7 -2.1,-9.3 -6.7,-10.3 l -32.5,-6.8 c -3.4,-0.7 -6.9,-1 -10.3,-1" style="fill:#080305;fill-opacity:1;fill-rule:nonzero;stroke:none" transform="matrix(0.13333333,0,0,-0.13333333,0,2666.6667)"/>
      <path id="path167" d="m 20433.7,8960.2 c 15.2,-98 125.1,-167.8 252.2,-157.6 110.5,8.9 198.3,75.5 219.1,157.9 l -471.3,-0.3" style="fill:none;fill-opacity:1;fill-rule:nonzero;stroke:none" transform="matrix(0.13333333,0,0,-0.13333333,0,2666.6667)"/>
      <path id="path168" d="m 19956.1,9325.8 c 10.2,-5.8 13.6,-18.7 7.8,-28.9 -5.9,-10.1 -18.8,-13.6 -28.9,-7.7 -10.2,5.8 -13.6,18.8 -7.8,28.9 5.9,10.1 18.8,13.6 28.9,7.7" style="fill:#080305;fill-opacity:1;fill-rule:nonzero;stroke:none" transform="matrix(0.13333333,0,0,-0.13333333,0,2666.6667)"/>
      <path id="path169" d="m 21386.5,9284.7 c 10.2,-5.9 13.6,-18.8 7.8,-29 -5.9,-10.1 -18.8,-13.5 -28.9,-7.7 -10.1,5.8 -13.6,18.8 -7.8,28.9 5.9,10.1 18.8,13.6 28.9,7.8" style="fill:#080305;fill-opacity:1;fill-rule:nonzero;stroke:none" transform="matrix(0.13333333,0,0,-0.13333333,0,2666.6667)"/>
      <path id="path170" d="m 21880.5,3324.5 -578.4,-250.1 -333.6,351 727.1,524.8 309.6,-576.7 -124.7,-49" style="fill:#f8bd8c;fill-opacity:1;fill-rule:nonzero;stroke:none" transform="matrix(0.13333333,0,0,-0.13333333,0,2666.6667)"/>
      <path id="path171" d="m 18604.6,1934.2 130.5,42.8 c 0,0 16.3,23 -1.7,52.6 -18,29.6 -60.8,28.7 -81.6,26.5 -20.9,-2.1 -64.1,-18.3 -64.1,-18.3 0,0 -51.2,58.5 -103.5,85 0,0 13.7,71.8 -10.6,118.6 0,0 53.6,54.7 47.8,135.4 0,0 5.5,9.7 13.6,24.7 6.9,-3 20.1,-9.1 28.7,-14 11.9,-6.8 12.9,-45.7 8.2,-69 -4.7,-23.4 -9.9,-97.5 -2.5,-139.8 7.4,-42.4 39.7,-71.1 88,-69.5 48.2,1.6 49.8,48.9 59.2,90.8 9.3,42 5.3,81.3 1.9,156.9 -3.3,75.5 16.3,113.3 30.7,184.6 14.5,71.4 9.2,128.6 9.2,128.6 -6.4,59.6 -30,131.5 -36.4,150 7,43 6.4,83.5 -7.3,113.6 -24.5,54 55.2,448.5 55.2,448.5 l -403.2,-45.6 37.6,-446.2 c 0,0 -126.2,-264.3 -168,-383 -41.8,-118.8 -72.2,-181.4 -66.4,-240.4 0,0 61.3,-237.4 124.2,-289.9 64.6,-53.7 208,-148 249.9,-151.2 45.2,-3.5 165.2,12.6 165.2,12.6 0,0 26.7,1.2 46.6,12.1 0,0 19.4,-0.3 4.4,40.1 -14.9,40.4 -56.3,30.3 -155.6,43.5" style="fill:#f8bd8c;fill-opacity:1;fill-rule:nonzero;stroke:none" transform="matrix(0.13333333,0,0,-0.13333333,0,2666.6667)"/>
      <path id="path172" d="m 19304.4,7736.8 c 0,0 -348.8,-190.6 -399.3,-459.7 -50.5,-269 -218.8,-648.9 -311.4,-807.2 -92.6,-158.3 -210.4,-482.8 -227.2,-593.6 -16.9,-110.8 -252.5,-1701.5 -185.2,-2081.4 67.3,-379.9 15.1,-675.3 145,-728.1 129.9,-52.8 545.1,0 545.1,0 l 606,3693.3 -173,976.7" style="fill:#ababab;fill-opacity:1;fill-rule:nonzero;stroke:none" transform="matrix(0.13333333,0,0,-0.13333333,0,2666.6667)"/>
      <path id="path173" d="m 21829.9,1637.8 h -3346.6 c 7.6,64.6 15.9,131.4 24.9,199.9 10.4,79 21.8,160.6 34.3,244.3 7.3,49.2 15.1,99 23.2,149.7 v 0.1 c 36.2,226.3 80.5,466.4 134.4,715.4 v 0.1 c 3.5,16.1 7.1,32.2 10.6,48.4 0,0.1 0,0.2 0.1,0.3 3.8,17.4 7.7,34.6 11.6,52.1 0.3,1.4 0.6,2.7 0.9,4.1 17.1,75.8 35.2,152.5 54.2,229.6 11.1,45.5 22.6,91.2 34.5,137 48.1,186.1 101.7,374.8 161.7,564.7 0,0 0,0 0,0.1 10.6,33.5 21.4,67.2 32.4,100.9 0,0 9.9,9.5 36.3,24 58.7,32.2 199,88.5 493.5,117 v 0.1 c 0.4,0 0.9,0.1 1.4,0.1 143.7,13.9 324.1,21 549.5,15.6 249.9,-6 555,-27.5 927,-72.7 0,0 20.5,-71.3 55.6,-185.1 31.9,-103.3 75.8,-241.8 127.1,-393.6 47.3,-139.8 100.9,-290.9 157.4,-436.6 6.3,-16.2 12.5,-32.3 18.9,-48.3 73.6,-186.1 151.4,-359.9 225.5,-485.1 108.5,-182.9 184.2,-575.7 231.6,-982.1" style="fill:#190444;fill-opacity:1;fill-rule:nonzero;stroke:none" transform="matrix(0.13333333,0,0,-0.13333333,0,2666.6667)"/>
      <path id="path174" d="m 19006.1,5153.3 c 8.4,84.2 54.5,648.1 54.5,648.1 0,0 29.7,799.5 1.7,1077.3 -17.8,174.4 104.1,518.1 197,749.7 16.1,40.1 31.3,76.4 45.1,108.4 l 181.1,74.8 620.5,256.5 c 0,0 -123.6,-931.2 -56.3,-1436.2 0,0 987.5,1032.2 1189.5,1503.5 0,0 673.3,-123.2 841.6,-101 168.3,22.6 550.1,-78.4 707,-1256.7 157.2,-1178.3 662.2,-1795.4 684.7,-2008.9 22.3,-213.1 134.7,-448.7 -134.6,-718 -269.3,-269.4 -718.4,-684.5 -774.3,-763.3 -56.2,-78.4 -606,-213.1 -606,-213.1 l -571.4,1037 c -18.5,33.7 -4.1,76 31.2,91.2 95.9,41.4 267.9,116.2 315.6,140 67.4,33.7 499.3,257.9 499.3,257.9 0,0 -339.4,460.2 -381.4,948.4 -18.9,218.1 -27.6,390.5 -31.3,515.1 -5.1,-418.5 -58.6,-1293.1 -400.7,-1743.9 l -179.7,-336.7 h -2265.5 c 0,0 -11.3,70.8 0,133.2 20.2,112.6 24,952.6 32.4,1036.7" style="fill:#ababab;fill-opacity:1;fill-rule:nonzero;stroke:none" transform="matrix(0.13333333,0,0,-0.13333333,0,2666.6667)"/>
      <path id="path175" d="m 18410.3,3040.4 c -1.8,0 -3.6,0.2 -5.3,0.7 l -121.8,33.4 c -28.6,7.8 -63.5,41.5 -79.9,234.7 -8.3,96.5 -8,191.8 -8,202.3 l -46,545.6 c -0.1,1 -0.1,1.9 0,2.9 l 29.2,469.4 c 1.1,10.2 103.4,923.4 135.9,1126.4 33.9,212.5 85.5,464.7 209.9,724.1 123.6,257.5 331.5,777.2 333.6,782.5 4.1,10.2 15.7,15.2 26,11.1 10.3,-4.1 15.2,-15.7 11.1,-26 -2,-5.2 -210.5,-526.2 -334.6,-784.9 -122.2,-254.8 -173,-503.4 -206.5,-713.1 -32.4,-202.1 -134.5,-1114.3 -135.6,-1123.5 l -29,-467 46,-545 c 0,-0.6 0,-1.2 0,-1.9 -1.8,-207.1 25,-389.9 58.5,-399.1 l 121.7,-33.3 c 10.7,-2.9 17,-13.9 14,-24.6 -2.4,-8.9 -10.4,-14.7 -19.2,-14.7" style="fill:#8e8d8e;fill-opacity:1;fill-rule:nonzero;stroke:none" transform="matrix(0.13333333,0,0,-0.13333333,0,2666.6667)"/>
      <path id="path176" d="m 18940,4358.2 c -5.4,0 -10.8,2.2 -14.7,6.5 -6.5,7 -63.3,81.8 -71.5,539.5 -8.2,458.1 84.4,799.7 109.2,834.7 6.4,9 18.9,11.1 27.9,4.7 8.9,-6.3 11.1,-18.7 4.8,-27.7 -16.9,-27.2 -110.1,-354.8 -101.9,-810.9 7.8,-433 58.3,-509.6 61.5,-514 6.9,-8.1 6.1,-20.3 -1.8,-27.5 -3.8,-3.6 -8.7,-5.3 -13.5,-5.3" style="fill:#8e8d8e;fill-opacity:1;fill-rule:nonzero;stroke:none" transform="matrix(0.13333333,0,0,-0.13333333,0,2666.6667)"/>
      <path id="path177" d="m 20049.7,6611.9 c -2.2,0 -4.4,0.4 -6.6,1.1 -7.2,2.6 -12.4,9.1 -13.2,16.7 -0.7,6.2 -68.9,634.7 52.2,1431.9 1.7,10.9 11.9,18.5 22.8,16.8 10.9,-1.7 18.4,-11.9 16.8,-22.8 -102.5,-674.3 -68.7,-1226.2 -56,-1379.2 165.8,168.1 966.7,994.9 1154.9,1466.5 4.1,10.2 15.7,15.2 26,11.1 10.2,-4.1 15.2,-15.7 11.1,-26 -212.2,-531.8 -1153.9,-1470.6 -1193.9,-1510.3 -3.8,-3.8 -8.9,-5.8 -14.1,-5.8" style="fill:#8e8d8e;fill-opacity:1;fill-rule:nonzero;stroke:none" transform="matrix(0.13333333,0,0,-0.13333333,0,2666.6667)"/>
      <path id="path178" d="m 22563.6,3267.5 c -4.6,0 -9.1,1.6 -12.9,4.7 -8.4,7.1 -9.5,19.8 -2.4,28.2 1.9,2.3 199.4,236 571.8,565 l 13,11.5 c 128.8,113.6 289,254.9 339,422.3 62.2,208.1 17.5,454.2 -132.8,731.7 -124.5,229.7 -221.8,477.5 -315.8,717.1 -10.1,25.8 -20.2,51.5 -30.3,77.2 -4.1,10.2 1,21.9 11.3,25.9 10.3,4 21.9,-1 25.9,-11.3 10.1,-25.7 20.2,-51.4 30.3,-77.2 93.6,-238.4 190.5,-485.1 313.8,-712.7 155.5,-287.1 201.3,-543.5 135.9,-762.2 -53.3,-178.3 -218.3,-323.8 -350.8,-440.8 l -13,-11.4 c -370,-326.9 -565.8,-558.5 -567.7,-560.8 -4,-4.7 -9.6,-7.2 -15.3,-7.2" style="fill:#8e8d8e;fill-opacity:1;fill-rule:nonzero;stroke:none" transform="matrix(0.13333333,0,0,-0.13333333,0,2666.6667)"/>
      <path id="path179" d="m 21729,5094.6 c -1.2,0 -2.5,0.2 -3.7,0.4 -10.9,2.1 -18,12.5 -16,23.4 0.1,0.6 11.8,62.3 36.5,215.5 24.7,152.5 53.5,725.3 53.8,731.1 0.5,11 10.2,19.5 21,18.9 11,-0.5 19.5,-9.9 18.9,-20.9 -1.1,-23.7 -29.2,-580.8 -54.2,-735.5 -24.8,-153.9 -36.6,-216 -36.7,-216.6 -1.8,-9.6 -10.2,-16.3 -19.6,-16.3" style="fill:#8e8d8e;fill-opacity:1;fill-rule:nonzero;stroke:none" transform="matrix(0.13333333,0,0,-0.13333333,0,2666.6667)"/>
      <path id="path180" d="m 20519.5,7842.9 c -29.5,0 -57.9,3.7 -85.1,11.2 -186.7,51.3 -249,266.1 -249.6,268.3 l 9.7,2.6 c 0.6,-2.1 61.3,-211.6 242.6,-261.3 166.5,-45.6 378.9,53.2 631.3,293.8 l 6.9,-7.3 c -214.3,-204.3 -400.8,-307.3 -555.8,-307.3" style="fill:#080305;fill-opacity:1;fill-rule:nonzero;stroke:none" transform="matrix(0.13333333,0,0,-0.13333333,0,2666.6667)"/>
      <path id="path181" d="m 15082.2,3132.4 c 0,0 209.7,-62.4 251.2,-71.4 0,0 -71.8,-296 -219.2,-368.3 l -3.5,-1.7 -28.5,441.4" style="fill:#eab186;fill-opacity:1;fill-rule:nonzero;stroke:none" transform="matrix(0.13333333,0,0,-0.13333333,0,2666.6667)"/>
      <path id="path182" d="m 14901.1,7863.8 c 0,0 54.6,41.9 124.8,-19.7 373.6,-328.6 337.6,-900.3 332.5,-1046.9 -5.2,-146.6 129,-681.8 199.6,-882.6 70.6,-200.7 156.1,-319.6 208.3,-669.1 52.3,-349.5 -0.1,-1040.4 5.8,-1125.6 6,-85.2 74.4,-498.7 110.2,-612.1 26.7,-84.8 -4.2,-342.3 -97.3,-383.7 -93.1,-41.4 -153.5,-95.3 -496.1,-52.9 -342.5,42.4 -254.8,156 -260.4,314.2 -5.6,158.1 -55.3,299.3 -56.8,369.7 -1.5,70.5 -15.2,203.4 -14.5,380.2 0.6,176.8 12.9,108.1 -21.8,279.3 -34.6,171.2 -282.9,1037.1 -192.9,1250.3 89.9,213.2 -247.1,927.9 -241.6,981.8 5.5,53.9 -81.3,543.7 -81.3,543.7 0,0 73.9,230.5 191.4,395.1 117.5,164.6 273.1,255.7 290.1,278.3 v 0" style="fill:#1a1a1a;fill-opacity:1;fill-rule:nonzero;stroke:none" transform="matrix(0.13333333,0,0,-0.13333333,0,2666.6667)"/>
      <path id="path183" d="M 13617.7,4863.6 V 4212 l -14,-658.3 -2.2,-100.7 c 0.1,-0.1 0,-0.1 0,-0.2 l -38.7,-1815 h -1568.1 l 153,1846.4 16.9,204.8 4.7,56.2 8.4,100.5 c 0,0 0,0 0,0.1 l 32.6,393.6 31.3,378.6 20.4,245.6 h 1355.7" style="fill:#ababab;fill-opacity:1;fill-rule:nonzero;stroke:none" transform="matrix(0.13333333,0,0,-0.13333333,0,2666.6667)"/>
      <path id="path184" d="m 15212.7,1637.8 h -1568.2 l -39.4,1847.8 c 0,0.1 0.1,0.2 0,0.3 l -1.4,67.8 -14.1,658.3 v 651.6 h 1355.8 l 79.5,-959.8 v -0.1 l 11.1,-134.6 1.3,-14.8 v -0.5 l 7.2,-86.7 v -0.1 l 44.5,-536.6 0.6,-6.7 35.2,-425.4 87.9,-1060.5" style="fill:#ababab;fill-opacity:1;fill-rule:nonzero;stroke:none" transform="matrix(0.13333333,0,0,-0.13333333,0,2666.6667)"/>
      <path id="path185" d="m 12070.7,8592.8 c 0,0 -88.6,555.3 128.1,840.5 216.6,285.3 147.7,529.8 147.7,662.2 0,132.5 39.4,550.2 226.5,703 187.1,152.8 265.9,489 876.5,366.7 0,0 157.5,91.7 561.3,40.8 403.8,-51 571.2,-580.7 590.9,-692.8 19.7,-112 59.1,-346.4 157.6,-458.4 98.4,-112.1 196.9,-366.8 128,-621.5 -69,-254.7 -72.1,-305.6 23,-539.9 95.2,-234.3 45.9,-300.6 45.9,-300.6 0,0 -1152.2,-473.7 -2885.5,0" style="fill:#d1d1d3;fill-opacity:1;fill-rule:nonzero;stroke:none" transform="matrix(0.13333333,0,0,-0.13333333,0,2666.6667)"/>
      <path id="path186" d="m 14055,8165 h -961.3 l 97.9,670.8 6.6,44.9 13.7,94.2 h 724.9 l 15.5,-105.8 28.3,-193.8 74.4,-510.3" style="fill:#f8bd8c;fill-opacity:1;fill-rule:nonzero;stroke:none" transform="matrix(0.13333333,0,0,-0.13333333,0,2666.6667)"/>
      <path id="path187" d="m 13980.6,8675.3 c -54.6,-71.5 -135.4,-131.9 -240.9,-142.1 -218.9,-21.4 -432.6,177.9 -548.1,302.6 l 6.6,44.9 c 9.9,-3.8 21,-7.8 33.5,-11.8 88.7,-28.8 224.2,-58.7 404.6,-58.6 130.7,0.3 230.6,27.2 302.9,58.6 l 13.1,0.2 28.3,-193.8" style="fill:#eab186;fill-opacity:1;fill-rule:nonzero;stroke:none" transform="matrix(0.13333333,0,0,-0.13333333,0,2666.6667)"/>
      <path id="path188" d="m 14361.7,9839.7 c 0,-612.7 -367.1,-1109.3 -820,-1109.3 -452.9,0 -820,496.6 -820,1109.3 0,612.6 367.1,1109.3 820,1109.3 452.9,0 820,-496.7 820,-1109.3" style="fill:#f8bd8c;fill-opacity:1;fill-rule:nonzero;stroke:none" transform="matrix(0.13333333,0,0,-0.13333333,0,2666.6667)"/>
      <path id="path189" d="m 12972.9,9645.6 c 42.4,-115 5.7,-236.2 -82,-270.8 -87.6,-34.6 -193.1,30.6 -235.4,145.6 -42.4,115 -5.7,236.3 82,270.9 87.6,34.5 193.1,-30.7 235.4,-145.7" style="fill:#f8bd8c;fill-opacity:1;fill-rule:nonzero;stroke:none" transform="matrix(0.13333333,0,0,-0.13333333,0,2666.6667)"/>
      <path id="path190" d="m 14220.8,9645.6 c -42.3,-115.1 -5.6,-236.3 82.1,-270.8 87.7,-34.6 193.1,30.7 235.4,145.7 42.3,115 5.6,236.3 -82.1,270.8 -87.7,34.5 -193.1,-30.7 -235.4,-145.7" style="fill:#f8bd8c;fill-opacity:1;fill-rule:nonzero;stroke:none" transform="matrix(0.13333333,0,0,-0.13333333,0,2666.6667)"/>
      <path id="path191" d="m 12975.8,10056.5 c -17.3,0 -33.7,10.5 -40.8,27.9 -9.6,23.3 0.9,50.3 23.4,60.2 213,93.4 374.8,6.3 381.6,2.7 21.7,-12 29.8,-39.8 18.3,-62.1 -11.5,-22.3 -38.1,-30.8 -59.8,-19 -6.2,3.3 -133.5,69.4 -305.4,-6.1 -5.7,-2.4 -11.6,-3.6 -17.3,-3.6" style="fill:#1a1a1a;fill-opacity:1;fill-rule:nonzero;stroke:none" transform="matrix(0.13333333,0,0,-0.13333333,0,2666.6667)"/>
      <path id="path192" d="m 13762.7,10056.5 c -17.2,0 -33.6,10.5 -40.8,27.9 -9.6,23.3 1,50.3 23.5,60.2 213,93.4 374.8,6.3 381.6,2.7 21.6,-12 29.8,-39.8 18.3,-62.1 -11.5,-22.3 -38,-30.8 -59.8,-19 -6.2,3.3 -133.6,69.4 -305.5,-6.1 -5.6,-2.4 -11.5,-3.6 -17.3,-3.6" style="fill:#1a1a1a;fill-opacity:1;fill-rule:nonzero;stroke:none" transform="matrix(0.13333333,0,0,-0.13333333,0,2666.6667)"/>
      <path id="path193" d="m 13211.9,9818.1 c 0,-52.2 -32.4,-94.6 -72.3,-94.6 -40,0 -72.4,42.4 -72.4,94.6 0,52.3 32.4,94.7 72.4,94.7 39.9,0 72.3,-42.4 72.3,-94.7" style="fill:#1a1a1a;fill-opacity:1;fill-rule:nonzero;stroke:none" transform="matrix(0.13333333,0,0,-0.13333333,0,2666.6667)"/>
      <path id="path194" d="m 14009.2,9818.1 c 0,-52.2 -32.4,-94.6 -72.4,-94.6 -39.9,0 -72.3,42.4 -72.3,94.6 0,52.3 32.4,94.7 72.3,94.7 40,0 72.4,-42.4 72.4,-94.7" style="fill:#1a1a1a;fill-opacity:1;fill-rule:nonzero;stroke:none" transform="matrix(0.13333333,0,0,-0.13333333,0,2666.6667)"/>
      <path id="path195" d="m 13449.5,10849.4 c 0,0 -482.6,-689.2 -551.5,-1047.6 -69,-358.3 -462.9,-246.2 -502.3,-256.4 -39.4,-10.2 236.4,1141 236.4,1141 l 817.4,356.6 v -193.6" style="fill:#d1d1d3;fill-opacity:1;fill-rule:nonzero;stroke:none" transform="matrix(0.13333333,0,0,-0.13333333,0,2666.6667)"/>
      <path id="path196" d="m 13449.5,11087.5 v -238.1 c 107.9,-226 243.6,-438.3 406,-626.5 172.1,-199.4 386.9,-373.3 597.1,-527.6 35.8,-26.2 88.1,-54.7 121,-84 -29.5,174.2 -83.5,348 -116.5,521.7 -29.6,156.1 -48.7,322.1 -96.7,477 -14.8,22.9 -910.9,477.5 -910.9,477.5" style="fill:#d1d1d3;fill-opacity:1;fill-rule:nonzero;stroke:none" transform="matrix(0.13333333,0,0,-0.13333333,0,2666.6667)"/>
      <path id="path197" d="m 13038,8632.6 c 0,0 -44.6,-87.6 -44.6,-170.7 0,-83 71.3,-304.4 -116,-313.7 -187.3,-9.2 -802.1,-415.2 -963,-535.1 -160.8,-120 -116.2,-378.3 -116.2,-378.3 0,0 330,-3342.4 383.5,-3397.7 53.5,-55.4 822.8,740.4 1110.5,705.8 287.6,-34.6 196.2,-99.2 312.1,-90 116,9.3 160.6,101.5 196.3,96.9 35.6,-4.6 156,-27.7 214,-69.2 58,-41.5 281,23.1 432.6,-115.3 151.6,-138.4 758.1,-599.8 758.1,-599.8 0,0 80.3,655.1 -53.5,858.1 -133.8,203 53.5,1993 0,2057.6 -53.5,64.6 -98.1,1144.1 -98.1,1144.1 0,0 -564.1,302.2 -744.7,309.1 -180.7,6.9 -133.8,442.9 -133.8,442.9 l -1137.2,55.3" style="fill:#1a1a1a;fill-opacity:1;fill-rule:nonzero;stroke:none" transform="matrix(0.13333333,0,0,-0.13333333,0,2666.6667)"/>
      <path id="path198" d="m 13541.5,9074.4 c -41.8,0 -85.2,7.5 -127.6,23.1 -5.2,1.9 -7.9,7.6 -6,12.8 1.9,5.2 7.7,7.9 12.9,6 125.7,-46.2 259.8,-17.7 326.1,69.3 3.3,4.4 9.6,5.2 14,1.9 4.4,-3.4 5.2,-9.6 1.9,-14 -48.9,-64.2 -131.3,-99.1 -221.3,-99.1" style="fill:#1a1a1a;fill-opacity:1;fill-rule:nonzero;stroke:none" transform="matrix(0.13333333,0,0,-0.13333333,0,2666.6667)"/>
      <path id="path199" d="m 14317.9,9083.3 c -2.1,0 -4.1,0 -6.2,0.1 -51.1,2 -94.9,28.2 -120.2,71.8 -2.1,3.6 -0.8,8.2 2.7,10.2 3.6,2.1 8.2,0.9 10.3,-2.7 22.6,-39.1 62,-62.5 107.8,-64.3 48,-2.1 94.1,20.9 120.8,59.5 40.5,58.5 46.7,145.2 14.8,206.1 -22,42 -59,65.1 -104.3,65.1 -4.2,0 -7.5,3.4 -7.5,7.5 0,4.2 3.3,7.5 7.5,7.5 v 0 c 51.1,0 92.9,-26 117.6,-73.1 34.4,-65.6 27.7,-158.8 -15.7,-221.7 -28.5,-41.1 -76.9,-66 -127.6,-66" style="fill:#1a1a1a;fill-opacity:1;fill-rule:nonzero;stroke:none" transform="matrix(0.13333333,0,0,-0.13333333,0,2666.6667)"/>
      <path id="path200" d="m 12763.1,9083.3 c -50.7,0 -99.1,24.9 -127.6,66 -37.9,54.9 -41,131.3 -7.8,194.7 29.5,56.3 82.2,89.9 141,89.9 v 0 c 4.2,0 7.5,-3.3 7.5,-7.5 0,-4.1 -3.3,-7.5 -7.5,-7.5 -53.9,0 -100.4,-29.8 -127.7,-81.8 -30.7,-58.6 -28,-128.9 6.8,-179.2 26.7,-38.6 73.1,-61.6 120.8,-59.5 45.9,1.8 85.2,25.2 107.9,64.3 2.1,3.6 6.7,4.8 10.2,2.7 3.6,-2 4.8,-6.6 2.8,-10.2 -25.3,-43.6 -69.2,-69.8 -120.3,-71.8 -2,-0.1 -4.1,-0.1 -6.1,-0.1" style="fill:#1a1a1a;fill-opacity:1;fill-rule:nonzero;stroke:none" transform="matrix(0.13333333,0,0,-0.13333333,0,2666.6667)"/>
      <path id="path201" d="m 13546.9,9486.2 h -12 c -39.8,0 -72,33.3 -72,74.5 V 9778 c 0,6.8 5.3,12.4 12,12.4 6.6,0 12,-5.6 12,-12.4 v -204.9 c 0,-34.3 26.8,-62.1 60,-62.1 v 0 c 6.6,0 12,-5.6 12,-12.4 0,-6.9 -5.4,-12.4 -12,-12.4" style="fill:#1a1a1a;fill-opacity:1;fill-rule:nonzero;stroke:none" transform="matrix(0.13333333,0,0,-0.13333333,0,2666.6667)"/>
      <path id="path202" d="m 13169.5,4017.4 -431.6,262.2 30.3,88.2 c 21.6,30.7 45.7,66.5 17.9,92.9 -28.8,27.1 -75.1,33.3 -111.6,14.7 l -482.4,-245.3 -341.2,-279.1 c 221.6,-218.5 385.4,-235.3 485.1,-209.7 10.5,-4.6 20.8,-9.3 31.5,-13.5 l 370.2,-142.7 c 33.4,-17.7 76.8,-9.3 98.9,19.2 16,20.6 25.8,55.6 -43.3,97.5 l 69.1,-41.9 c 35.5,-18.8 81.4,-9.3 103.9,21.3 20.9,27 6.4,67.5 -33.3,97.6 l 53.6,-26.3 c 38.7,-20.4 89.8,-8.3 110.9,28.3 18.4,31.7 4,70.7 -29.3,90.9 l -76.3,46.1 88.7,-9.8 c 42.6,-19.2 101,-26.3 121.9,13.3 17.9,34.1 2.1,74.7 -33,96.1 v 0 0" style="fill:#f8bd8c;fill-opacity:1;fill-rule:nonzero;stroke:none" transform="matrix(0.13333333,0,0,-0.13333333,0,2666.6667)"/>
      <path id="path203" d="m 11914.4,7613.1 c 0,0 -941.5,-891.7 -1029.4,-1026.3 -82.7,-126.7 -137.9,-157.3 -195.5,-202.4 -57.6,-45 -39.8,-81.6 -235.9,-406.2 -146.3,-242.1 -233.8,-643.6 -133.2,-921.1 104.1,-287.1 381.3,-483 638.3,-622.9 278.5,-151.6 331.6,-200.7 553.9,-335.9 222.2,-135.3 280.5,-161 401.8,-290.7 72.5,-77.5 244.9,-114.4 348.7,-148.1 45.7,-14.9 101.7,36.3 115.2,83.9 l 201.5,683.8 c 0,0 -174.1,430.2 -522.5,604.8 -198.7,99.5 -430.8,203.7 -544.3,303.9 -92.2,81.3 241.4,254.3 310.6,313.9 57,49.1 277.3,247.3 316.5,260.8 39.3,13.5 156.9,578.1 156.9,586.6 0,8.5 -382.6,1115.9 -382.6,1115.9" style="fill:#1a1a1a;fill-opacity:1;fill-rule:nonzero;stroke:none" transform="matrix(0.13333333,0,0,-0.13333333,0,2666.6667)"/>
      <path id="path204" d="m 13552.1,2274.3 c -0.2,0 -0.3,0 -0.5,0 -11.1,0.3 -19.8,9.5 -19.5,20.5 1.2,44.9 30.1,1100.9 58.1,1223.8 31.8,139.8 285,403.3 295.7,414.5 7.7,7.9 20.4,8.1 28.3,0.5 8,-7.7 8.2,-20.4 0.5,-28.3 -2.5,-2.7 -256.1,-266.6 -285.5,-395.5 -27.1,-119.2 -56.8,-1205.1 -57.1,-1216 -0.3,-10.9 -9.2,-19.5 -20,-19.5" style="fill:#999999;fill-opacity:1;fill-rule:nonzero;stroke:none" transform="matrix(0.13333333,0,0,-0.13333333,0,2666.6667)"/>
      <path id="path205" d="m 11967.8,5745.5 c -5.9,0 -11.7,2.6 -15.7,7.6 -6.9,8.7 -5.4,21.3 3.3,28.1 117.7,93.2 222.5,206.8 311.5,337.4 15.3,22.5 29.9,49 45.4,77.1 36.5,65.9 74.1,134.1 129.6,168.3 9.4,5.8 21.7,2.9 27.5,-6.5 5.8,-9.4 2.9,-21.8 -6.5,-27.6 -46.5,-28.7 -81.6,-92.1 -115.6,-153.5 -15.9,-28.9 -31,-56.3 -47.4,-80.3 -91.2,-134 -198.8,-250.5 -319.7,-346.2 -3.7,-2.9 -8.1,-4.4 -12.4,-4.4" style="fill:#333333;fill-opacity:1;fill-rule:nonzero;stroke:none" transform="matrix(0.13333333,0,0,-0.13333333,0,2666.6667)"/>
      <path id="path206" d="m 12576,4664.7 c -7.4,0 -14.5,4.1 -18,11.2 v 0 c -0.6,1.3 -61.2,123.3 -193.9,180.1 -143.5,61.4 -185,102 -186.7,103.7 -7.9,7.8 -7.9,20.5 0,28.3 7.8,7.8 20.4,7.8 28.2,0 0.3,-0.3 39.8,-37.7 174.3,-95.3 146.8,-62.8 211.4,-193.8 214.1,-199.3 4.8,-10 0.7,-21.9 -9.3,-26.7 -2.8,-1.4 -5.7,-2 -8.7,-2" style="fill:#333333;fill-opacity:1;fill-rule:nonzero;stroke:none" transform="matrix(0.13333333,0,0,-0.13333333,0,2666.6667)"/>
      <path id="path207" d="m 15053.4,4211.3 c -1.6,0 -3.2,0.2 -4.8,0.6 -10.7,2.6 -17.3,13.4 -14.7,24.1 0.3,1 24.4,105.4 -8.3,295.9 l -7.1,40.5 c -17.8,102.3 -18.5,106.3 -6.9,160 4.6,21.2 10.9,50.3 18.6,99.9 27.7,177.1 -132.6,797.9 -134.3,804.1 -2.7,10.7 3.7,21.6 14.4,24.4 10.7,2.8 21.6,-3.6 24.4,-14.3 6.7,-25.9 164,-635.2 135.1,-820.3 -8,-50.8 -14.4,-80.5 -19.1,-102.3 -9.9,-46.1 -9.9,-46.1 7.2,-144.7 l 7.1,-40.6 c 34.3,-199.6 8.9,-307.5 7.8,-312 -2.2,-9.2 -10.4,-15.3 -19.4,-15.3" style="fill:#333333;fill-opacity:1;fill-rule:nonzero;stroke:none" transform="matrix(0.13333333,0,0,-0.13333333,0,2666.6667)"/>
    </g>
  </g>
</svg>
